{
  "accessors": [
    {
      "bufferView": 2,
      "componentType": 5126,
      "count": 48,
      "max": [
        0.5,
        0.5323017835617065,
        0.49999991059303284
      ],
      "min": [
        -0.5,
        -0.5161508321762085,
        -1.014136791229248
      ],
      "type": "VEC3"
    },
    {
      "bufferView": 2,
      "byteOffset": 576,
      "componentType": 5126,
      "count": 48,
      "max": [
        0.9941100478172302,
        1.0,
        1.0
      ],
      "min": [
        -0.9941100478172302,
        -1.0,
        -1.0
      ],
      "type": "VEC3"
    },
    {
      "bufferView": 1,
      "componentType": 5126,
      "count": 48,
      "max": [
        0.9802118539810181,
        0.9730463027954102
      ],
      "min": [
        0.0170915424823761,
        0.010590136051177979
      ],
      "type": "VEC2"
    },
    {
      "bufferView": 0,
      "componentType": 5125,
      "count": 96,
      "type": "SCALAR"
    },
    {
      "bufferView": 2,
      "byteOffset": 1152,
      "componentType": 5126,
      "count": 3953,
      "max": [
        -9.499312400817871,
        11.035765647888184,
        -6.885251998901367
      ],
      "min": [
        -10.619720458984375,
        5.82704496383667,
        -9.281591415405273
      ],
      "type": "VEC3"
    },
    {
      "bufferView": 2,
      "byteOffset": 48588,
      "componentType": 5126,
      "count": 3953,
      "max": [
        0.9999894499778748,
        0.4743320643901825,
        0.9998923540115356
      ],
      "min": [
        -0.6177390217781067,
        -0.6121282577514648,
        -0.9999996423721313
      ],
      "type": "VEC3"
    },
    {
      "bufferView": 1,
      "byteOffset": 384,
      "componentType": 5126,
      "count": 3953,
      "max": [
        0.6153320074081421,
        0.8588255047798157
      ],
      "min": [
        0.03533196449279785,
        0.19882544875144958
      ],
      "type": "VEC2"
    },
    {
      "bufferView": 0,
      "byteOffset": 384,
      "componentType": 5125,
      "count": 22968,
      "type": "SCALAR"
    },
    {
      "bufferView": 2,
      "byteOffset": 96024,
      "componentType": 5126,
      "count": 4489,
      "max": [
        -9.666460037231445,
        11.037464141845703,
        -1.3539761304855347
      ],
      "min": [
        -10.501794815063477,
        5.898495674133301,
        -4.040310859680176
      ],
      "type": "VEC3"
    },
    {
      "bufferView": 2,
      "byteOffset": 149892,
      "componentType": 5126,
      "count": 4489,
      "max": [
        0.9999881982803345,
        0.5528050661087036,
        0.9997166991233826
      ],
      "min": [
        -0.7003030180931091,
        -0.5905252695083618,
        -0.9999943971633911
      ],
      "type": "VEC3"
    },
    {
      "bufferView": 1,
      "byteOffset": 32008,
      "componentType": 5126,
      "count": 4489,
      "max": [
        0.6913884878158569,
        0.8565192818641663
      ],
      "min": [
        0.03138849139213562,
        0.19651922583580017
      ],
      "type": "VEC2"
    },
    {
      "bufferView": 0,
      "byteOffset": 92256,
      "componentType": 5125,
      "count": 26136,
      "type": "SCALAR"
    },
    {
      "bufferView": 2,
      "byteOffset": 203760,
      "componentType": 5126,
      "count": 84,
      "max": [
        -10.041221618652344,
        11.03085708618164,
        -1.1928520202636719
      ],
      "min": [
        -10.166017532348633,
        10.906061172485352,
        -9.387596130371094
      ],
      "type": "VEC3"
    },
    {
      "bufferView": 2,
      "byteOffset": 204768,
      "componentType": 5126,
      "count": 84,
      "max": [
        1.0,
        1.0,
        1.0
      ],
      "min": [
        -1.0,
        -1.0,
        -1.0
      ],
      "type": "VEC3"
    },
    {
      "bufferView": 1,
      "byteOffset": 67920,
      "componentType": 5126,
      "count": 84,
      "max": [
        0.9764418601989746,
        0.9001647233963013
      ],
      "min": [
        0.7506004571914673,
        0.039073728024959564
      ],
      "type": "VEC2"
    },
    {
      "bufferView": 0,
      "byteOffset": 196800,
      "componentType": 5125,
      "count": 240,
      "type": "SCALAR"
    },
    {
      "bufferView": 2,
      "byteOffset": 205776,
      "componentType": 5126,
      "count": 52,
      "max": [
        -9.917724609375,
        11.166154861450195,
        -1.1447439193725586
      ],
      "min": [
        -10.456395149230957,
        10.761955261230469,
        -1.2864866256713867
      ],
      "type": "VEC3"
    },
    {
      "bufferView": 2,
      "byteOffset": 206400,
      "componentType": 5126,
      "count": 52,
      "max": [
        0.9973416924476624,
        1.0,
        1.0
      ],
      "min": [
        -1.0,
        -1.0,
        -1.0
      ],
      "type": "VEC3"
    },
    {
      "bufferView": 1,
      "byteOffset": 68592,
      "componentType": 5126,
      "count": 52,
      "max": [
        0.2493618130683899,
        0.0886189341545105
      ],
      "min": [
        0.04286926984786987,
        0.03277362883090973
      ],
      "type": "VEC2"
    },
    {
      "bufferView": 0,
      "byteOffset": 197760,
      "componentType": 5125,
      "count": 108,
      "type": "SCALAR"
    },
    {
      "bufferView": 2,
      "byteOffset": 207024,
      "componentType": 5126,
      "count": 52,
      "max": [
        -9.917724609375,
        11.166154861450195,
        -9.341085433959961
      ],
      "min": [
        -10.456395149230957,
        10.761955261230469,
        -9.482828140258789
      ],
      "type": "VEC3"
    },
    {
      "bufferView": 2,
      "byteOffset": 207648,
      "componentType": 5126,
      "count": 52,
      "max": [
        0.9973416924476624,
        1.0,
        1.0
      ],
      "min": [
        -1.0,
        -1.0,
        -1.0
      ],
      "type": "VEC3"
    },
    {
      "bufferView": 1,
      "byteOffset": 69008,
      "componentType": 5126,
      "count": 52,
      "max": [
        0.2493618130683899,
        0.0886189341545105
      ],
      "min": [
        0.04286926984786987,
        0.03277362883090973
      ],
      "type": "VEC2"
    },
    {
      "bufferView": 0,
      "byteOffset": 198192,
      "componentType": 5125,
      "count": 108,
      "type": "SCALAR"
    },
    {
      "bufferView": 2,
      "byteOffset": 208272,
      "componentType": 5126,
      "count": 96,
      "max": [
        -10.801980972290039,
        10.530632972717285,
        -2.1954758167266846
      ],
      "min": [
        -10.952485084533691,
        6.216936111450195,
        -8.422595024108887
      ],
      "type": "VEC3"
    },
    {
      "bufferView": 2,
      "byteOffset": 209424,
      "componentType": 5126,
      "count": 96,
      "max": [
        1.0,
        1.0,
        1.0
      ],
      "min": [
        -1.0,
        -1.0,
        -1.0
      ],
      "type": "VEC3"
    },
    {
      "bufferView": 1,
      "byteOffset": 69424,
      "componentType": 5126,
      "count": 96,
      "max": [
        0.9283194541931152,
        0.9207262992858887
      ],
      "min": [
        0.06264270842075348,
        0.0607791543006897
      ],
      "type": "VEC2"
    },
    {
      "bufferView": 0,
      "byteOffset": 198624,
      "componentType": 5125,
      "count": 144,
      "type": "SCALAR"
    },
    {
      "bufferView": 2,
      "byteOffset": 210576,
      "componentType": 5126,
      "count": 275,
      "max": [
        -10.419272422790527,
        12.69359016418457,
        1.0571422576904297
      ],
      "min": [
        -11.362853050231934,
        3.9710817337036133,
        -11.696464538574219
      ],
      "type": "VEC3"
    },
    {
      "bufferView": 2,
      "byteOffset": 213876,
      "componentType": 5126,
      "count": 275,
      "max": [
        1.0,
        1.0,
        1.0
      ],
      "min": [
        -4.5038668758934364e-05,
        -1.0,
        -1.0
      ],
      "type": "VEC3"
    },
    {
      "bufferView": 1,
      "byteOffset": 70192,
      "componentType": 5126,
      "count": 275,
      "max": [
        0.9532946348190308,
        0.5363112688064575
      ],
      "min": [
        0.07085555046796799,
        0.05333681032061577
      ],
      "type": "VEC2"
    },
    {
      "bufferView": 0,
      "byteOffset": 199200,
      "componentType": 5125,
      "count": 840,
      "type": "SCALAR"
    },
    {
      "bufferView": 2,
      "byteOffset": 217176,
      "componentType": 5126,
      "count": 24,
      "max": [
        0.5,
        1.1662112474441528,
        0.5
      ],
      "min": [
        -0.5,
        -1.5120162963867188,
        -0.5
      ],
      "type": "VEC3"
    },
    {
      "bufferView": 2,
      "byteOffset": 217464,
      "componentType": 5126,
      "count": 24,
      "max": [
        1.0,
        1.0,
        1.0
      ],
      "min": [
        -1.0,
        -1.0,
        -1.0
      ],
      "type": "VEC3"
    },
    {
      "bufferView": 1,
      "byteOffset": 72392,
      "componentType": 5126,
      "count": 24,
      "max": [
        0.875,
        1.0
      ],
      "min": [
        0.125,
        0.0
      ],
      "type": "VEC2"
    },
    {
      "bufferView": 0,
      "byteOffset": 202560,
      "componentType": 5125,
      "count": 36,
      "type": "SCALAR"
    },
    {
      "bufferView": 2,
      "byteOffset": 217752,
      "componentType": 5126,
      "count": 105,
      "max": [
        0.7150173187255859,
        0.4998779296875,
        14.268375396728516
      ],
      "min": [
        -0.5000057220458984,
        -8.985931396484375,
        -0.5
      ],
      "type": "VEC3"
    },
    {
      "bufferView": 2,
      "byteOffset": 219012,
      "componentType": 5126,
      "count": 105,
      "max": [
        1.0,
        1.0,
        1.0
      ],
      "min": [
        -1.0,
        -1.0,
        -1.0
      ],
      "type": "VEC3"
    },
    {
      "bufferView": 1,
      "byteOffset": 72584,
      "componentType": 5126,
      "count": 105,
      "max": [
        0.875,
        1.0
      ],
      "min": [
        0.125,
        0.0
      ],
      "type": "VEC2"
    },
    {
      "bufferView": 0,
      "byteOffset": 202704,
      "componentType": 5125,
      "count": 252,
      "type": "SCALAR"
    }
  ],
  "asset": {
    "extras": {
      "author": "Nelesh_surve (https://sketchfab.com/Nelesh_surve)",
      "license": "CC-BY-4.0 (http://creativecommons.org/licenses/by/4.0/)",
      "source": "https://sketchfab.com/3d-models/window-curtain-229d686ed3c348808432d9093621eefd",
      "title": "Window_Curtain"
    },
    "generator": "Sketchfab-12.68.0",
    "version": "2.0"
  },
  "bufferViews": [
    {
      "buffer": 0,
      "byteLength": 203712,
      "name": "floatBufferViews",
      "target": 34963
    },
    {
      "buffer": 0,
      "byteLength": 73424,
      "byteOffset": 203712,
      "byteStride": 8,
      "name": "floatBufferViews",
      "target": 34962
    },
    {
      "buffer": 0,
      "byteLength": 220272,
      "byteOffset": 277136,
      "byteStride": 12,
      "name": "floatBufferViews",
      "target": 34962
    }
  ],
  "buffers": [
    {
      "byteLength": 497408,
      "uri": "scene.bin"
    }
  ],
  "extensionsUsed": [
    "KHR_materials_transmission"
  ],
  "images": [
    {
      "uri": "textures/screen_baseColor.png"
    },
    {
      "uri": "textures/screen_metallicRoughness.png"
    },
    {
      "uri": "textures/wall_baseColor.png"
    },
    {
      "uri": "textures/wall_metallicRoughness.png"
    }
  ],
  "materials": [
    {
      "doubleSided": true,
      "name": "frame",
      "pbrMetallicRoughness": {
        "baseColorFactor": [
          0.06767137698012625,
          0.06767137698012625,
          0.06767137698012625,
          1.0
        ],
        "metallicFactor": 0.0,
        "roughnessFactor": 0.6
      }
    },
    {
      "doubleSided": true,
      "name": "screen",
      "pbrMetallicRoughness": {
        "baseColorTexture": {
          "index": 0
        },
        "metallicRoughnessTexture": {
          "index": 1
        }
      }
    },
    {
      "doubleSided": true,
      "name": "pipe",
      "pbrMetallicRoughness": {
        "baseColorFactor": [
          0.5,
          0.5,
          0.5,
          1.0
        ],
        "metallicFactor": 0.9424199847408924,
        "roughnessFactor": 0.0
      }
    },
    {
      "doubleSided": true,
      "name": "cover",
      "pbrMetallicRoughness": {
        "baseColorFactor": [
          0.07634375382127633,
          0.04089009819170893,
          0.0086502804086383,
          1.0
        ],
        "metallicFactor": 0.0,
        "roughnessFactor": 0.6
      }
    },
    {
      "doubleSided": true,
      "name": "wall",
      "pbrMetallicRoughness": {
        "baseColorTexture": {
          "index": 2
        },
        "metallicRoughnessTexture": {
          "index": 3
        }
      }
    },
    {
      "alphaMode": "BLEND",
      "doubleSided": true,
      "extensions": {
        "KHR_materials_transmission": {
          "transmissionFactor": 1.0
        }
      },
      "name": "glass",
      "pbrMetallicRoughness": {
        "baseColorFactor": [
          0.0,
          0.0,
          0.0,
          0.25
        ],
        "metallicFactor": 0.0,
        "roughnessFactor": 0.6
      }
    }
  ],
  "meshes": [
    {
      "name": "pCube38_frame_0",
      "primitives": [
        {
          "attributes": {
            "NORMAL": 1,
            "POSITION": 0,
            "TEXCOORD_0": 2
          },
          "indices": 3,
          "material": 0,
          "mode": 4
        }
      ]
    },
    {
      "name": "polySurface558_screen_0",
      "primitives": [
        {
          "attributes": {
            "NORMAL": 5,
            "POSITION": 4,
            "TEXCOORD_0": 6
          },
          "indices": 7,
          "material": 1,
          "mode": 4
        }
      ]
    },
    {
      "name": "polySurface559_screen_0",
      "primitives": [
        {
          "attributes": {
            "NORMAL": 9,
            "POSITION": 8,
            "TEXCOORD_0": 10
          },
          "indices": 11,
          "material": 1,
          "mode": 4
        }
      ]
    },
    {
      "name": "polySurface560_pipe_0",
      "primitives": [
        {
          "attributes": {
            "NORMAL": 13,
            "POSITION": 12,
            "TEXCOORD_0": 14
          },
          "indices": 15,
          "material": 2,
          "mode": 4
        }
      ]
    },
    {
      "name": "polySurface561_cover_0",
      "primitives": [
        {
          "attributes": {
            "NORMAL": 17,
            "POSITION": 16,
            "TEXCOORD_0": 18
          },
          "indices": 19,
          "material": 3,
          "mode": 4
        }
      ]
    },
    {
      "name": "polySurface562_cover_0",
      "primitives": [
        {
          "attributes": {
            "NORMAL": 21,
            "POSITION": 20,
            "TEXCOORD_0": 22
          },
          "indices": 23,
          "material": 3,
          "mode": 4
        }
      ]
    },
    {
      "name": "pCube39_frame_0",
      "primitives": [
        {
          "attributes": {
            "NORMAL": 25,
            "POSITION": 24,
            "TEXCOORD_0": 26
          },
          "indices": 27,
          "material": 0,
          "mode": 4
        }
      ]
    },
    {
      "name": "polySurface557_wall_0",
      "primitives": [
        {
          "attributes": {
            "NORMAL": 29,
            "POSITION": 28,
            "TEXCOORD_0": 30
          },
          "indices": 31,
          "material": 4,
          "mode": 4
        }
      ]
    },
    {
      "name": "pCube40_glass_0",
      "primitives": [
        {
          "attributes": {
            "NORMAL": 33,
            "POSITION": 32,
            "TEXCOORD_0": 34
          },
          "indices": 35,
          "material": 5,
          "mode": 4
        }
      ]
    },
    {
      "name": "pCube41_cover_0",
      "primitives": [
        {
          "attributes": {
            "NORMAL": 37,
            "POSITION": 36,
            "TEXCOORD_0": 38
          },
          "indices": 39,
          "material": 3,
          "mode": 4
        }
      ]
    }
  ],
  "nodes": [
    {
      "children": [
        1
      ],
      "matrix": [
        1.0,
        0.0,
        0.0,
        0.0,
        0.0,
        2.220446049250313e-16,
        -1.0,
        0.0,
        0.0,
        1.0,
        2.220446049250313e-16,
        0.0,
        0.0,
        0.0,
        0.0,
        1.0
      ],
      "name": "Sketchfab_model"
    },
    {
      "children": [
        2
      ],
      "matrix": [
        0.009999999776482582,
        0.0,
        0.0,
        0.0,
        0.0,
        0.0,
        0.009999999776482582,
        0.0,
        0.0,
        -0.009999999776482582,
        0.0,
        0.0,
        0.0,
        0.0,
        0.0,
        1.0
      ],
      "name": "ef3842224e954b8ca90b79ed00d0cd78.fbx"
    },
    {
      "children": [
        3,
        23
      ],
      "name": "RootNode"
    },
    {
      "children": [
        4,
        6,
        17,
        19,
        21
      ],
      "matrix": [
        1.0,
        0.0,
        0.0,
        0.0,
        0.0,
        1.0,
        0.0,
        0.0,
        0.0,
        0.0,
        1.0,
        0.0,
        0.0,
        0.0,
        -22.68755340576172,
        1.0
      ],
      "name": "window"
    },
    {
      "children": [
        5
      ],
      "matrix": [
        0.6249948143959045,
        0.0,
        0.0,
        0.0,
        0.0,
        4.523629665374756,
        0.0,
        0.0,
        0.0,
        0.0,
        4.523629665374756,
        0.0,
        -10.911298751831055,
        8.316169738769531,
        -4.13870096206665,
        1.0
      ],
      "name": "pCube38"
    },
    {
      "mesh": 0,
      "name": "pCube38_frame_0"
    },
    {
      "children": [
        7,
        9,
        11,
        13,
        15
      ],
      "name": "polySurface556"
    },
    {
      "children": [
        8
      ],
      "name": "polySurface558"
    },
    {
      "mesh": 1,
      "name": "polySurface558_screen_0"
    },
    {
      "children": [
        10
      ],
      "name": "polySurface559"
    },
    {
      "mesh": 2,
      "name": "polySurface559_screen_0"
    },
    {
      "children": [
        12
      ],
      "name": "polySurface560"
    },
    {
      "mesh": 3,
      "name": "polySurface560_pipe_0"
    },
    {
      "children": [
        14
      ],
      "name": "polySurface561"
    },
    {
      "mesh": 4,
      "name": "polySurface561_cover_0"
    },
    {
      "children": [
        16
      ],
      "name": "polySurface562"
    },
    {
      "mesh": 5,
      "name": "polySurface562_cover_0"
    },
    {
      "children": [
        18
      ],
      "name": "pCube39"
    },
    {
      "mesh": 6,
      "name": "pCube39_frame_0"
    },
    {
      "children": [
        20
      ],
      "name": "polySurface557"
    },
    {
      "mesh": 7,
      "name": "polySurface557_wall_0"
    },
    {
      "children": [
        22
      ],
      "matrix": [
        0.013016410171985626,
        0.0,
        0.0,
        0.0,
        0.0,
        5.275246550721306e-16,
        2.3757598400115967,
        0.0,
        0.0,
        -4.328806400299072,
        9.611881069513544e-16,
        0.0,
        -10.86616039276123,
        8.38645076751709,
        -4.8905720710754395,
        1.0
      ],
      "name": "pCube40"
    },
    {
      "mesh": 8,
      "name": "pCube40_glass_0"
    },
    {
      "children": [
        24
      ],
      "matrix": [
        0.4031715393066406,
        0.0,
        0.0,
        0.0,
        0.0,
        0.03045915625989437,
        0.0,
        0.0,
        0.0,
        0.0,
        0.5482650399208069,
        0.0,
        -10.223644256591797,
        11.127575874328613,
        -31.773466110229492,
        1.0
      ],
      "name": "pCube41"
    },
    {
      "mesh": 9,
      "name": "pCube41_cover_0"
    }
  ],
  "samplers": [
    {
      "magFilter": 9729,
      "minFilter": 9987,
      "wrapS": 10497,
      "wrapT": 10497
    }
  ],
  "scene": 0,
  "scenes": [
    {
      "name": "Sketchfab_Scene",
      "nodes": [
        0
      ]
    }
  ],
  "textures": [
    {
      "sampler": 0,
      "source": 0
    },
    {
      "sampler": 0,
      "source": 1
    },
    {
      "sampler": 0,
      "source": 2
    },
    {
      "sampler": 0,
      "source": 3
    }
  ]
}
