{
  "accessors": [
    {
      "bufferView": 2,
      "componentType": 5126,
      "count": 1288,
      "max": [
        -2.3758585453033447,
        12.353391647338867,
        0.8114759922027588
      ],
      "min": [
        -4.127067565917969,
        11.353391647338867,
        -0.34885266423225403
      ],
      "type": "VEC3"
    },
    {
      "bufferView": 2,
      "byteOffset": 15456,
      "componentType": 5126,
      "count": 1288,
      "max": [
        1.0,
        1.0,
        1.0
      ],
      "min": [
        -1.0,
        -1.0,
        -1.0
      ],
      "type": "VEC3"
    },
    {
      "bufferView": 1,
      "componentType": 5126,
      "count": 1288,
      "max": [
        0.9723914265632629,
        0.9346489906311035
      ],
      "min": [
        0.030348241329193115,
        0.013938698917627335
      ],
      "type": "VEC2"
    },
    {
      "bufferView": 0,
      "componentType": 5125,
      "count": 5370,
      "type": "SCALAR"
    },
    {
      "bufferView": 2,
      "byteOffset": 30912,
      "componentType": 5126,
      "count": 24,
      "max": [
        3.768846273422241,
        19.810367584228516,
        0.20219077169895172
      ],
      "min": [
        -3.5977256298065186,
        2.5914955139160156,
        0.15012682974338531
      ],
      "type": "VEC3"
    },
    {
      "bufferView": 2,
      "byteOffset": 31200,
      "componentType": 5126,
      "count": 24,
      "max": [
        1.0,
        1.0,
        1.0
      ],
      "min": [
        -1.0,
        -1.0,
        -1.0
      ],
      "type": "VEC3"
    },
    {
      "bufferView": 1,
      "byteOffset": 10304,
      "componentType": 5126,
      "count": 24,
      "max": [
        0.9175872206687927,
        0.3960549831390381
      ],
      "min": [
        0.7825871706008911,
        0.21605496108531952
      ],
      "type": "VEC2"
    },
    {
      "bufferView": 0,
      "byteOffset": 21480,
      "componentType": 5125,
      "count": 36,
      "type": "SCALAR"
    },
    {
      "bufferView": 2,
      "byteOffset": 31488,
      "componentType": 5126,
      "count": 48,
      "max": [
        4.277877330780029,
        20.03554916381836,
        0.4823194146156311
      ],
      "min": [
        -4.277877330780029,
        1.8930559158325195,
        -0.07812689244747162
      ],
      "type": "VEC3"
    },
    {
      "bufferView": 2,
      "byteOffset": 32064,
      "componentType": 5126,
      "count": 48,
      "max": [
        1.0,
        1.0,
        1.0
      ],
      "min": [
        -1.0,
        -1.0,
        -1.0
      ],
      "type": "VEC3"
    },
    {
      "bufferView": 1,
      "byteOffset": 10496,
      "componentType": 5126,
      "count": 48,
      "max": [
        0.9720591306686401,
        0.9920251369476318
      ],
      "min": [
        0.022330760955810547,
        0.1650031954050064
      ],
      "type": "VEC2"
    },
    {
      "bufferView": 0,
      "byteOffset": 21624,
      "componentType": 5125,
      "count": 96,
      "type": "SCALAR"
    }
  ],
  "asset": {
    "extras": {
      "author": "AgfaSteve (https://sketchfab.com/AgfaSteve)",
      "license": "CC-BY-4.0 (http://creativecommons.org/licenses/by/4.0/)",
      "source": "https://sketchfab.com/3d-models/simple-door-cf1ececa896849e2a1572b8c54ca771d",
      "title": "Simple Door"
    },
    "generator": "Sketchfab-12.67.0",
    "version": "2.0"
  },
  "bufferViews": [
    {
      "buffer": 0,
      "byteLength": 22008,
      "name": "floatBufferViews",
      "target": 34963
    },
    {
      "buffer": 0,
      "byteLength": 10880,
      "byteOffset": 22008,
      "byteStride": 8,
      "name": "floatBufferViews",
      "target": 34962
    },
    {
      "buffer": 0,
      "byteLength": 32640,
      "byteOffset": 32888,
      "byteStride": 12,
      "name": "floatBufferViews",
      "target": 34962
    }
  ],
  "buffers": [
    {
      "byteLength": 65528,
      "uri": "scene.bin"
    }
  ],
  "images": [
    {
      "uri": "textures/pasted__pasted__lambert3_baseColor.jpeg"
    },
    {
      "uri": "textures/blinn9_baseColor.jpeg"
    }
  ],
  "materials": [
    {
      "doubleSided": true,
      "name": "pasted__pasted__lambert3",
      "pbrMetallicRoughness": {
        "baseColorTexture": {
          "index": 0
        },
        "metallicFactor": 0.0,
        "roughnessFactor": 0.6
      }
    },
    {
      "doubleSided": true,
      "name": "blinn8",
      "pbrMetallicRoughness": {
        "baseColorFactor": [
          0.0983,
          0.3344,
          0.2949,
          1.0
        ],
        "metallicFactor": 0.0,
        "roughnessFactor": 0.9207483816249483
      }
    },
    {
      "doubleSided": true,
      "name": "blinn9",
      "pbrMetallicRoughness": {
        "baseColorTexture": {
          "index": 1
        },
        "metallicFactor": 0.0,
        "roughnessFactor": 0.9207483816249483
      }
    }
  ],
  "meshes": [
    {
      "name": "Door_pasted__pasted__lambert3_0",
      "primitives": [
        {
          "attributes": {
            "NORMAL": 1,
            "POSITION": 0,
            "TEXCOORD_0": 2
          },
          "indices": 3,
          "material": 0,
          "mode": 4
        }
      ]
    },
    {
      "name": "Door_blinn8_0",
      "primitives": [
        {
          "attributes": {
            "NORMAL": 5,
            "POSITION": 4,
            "TEXCOORD_0": 6
          },
          "indices": 7,
          "material": 1,
          "mode": 4
        }
      ]
    },
    {
      "name": "Door_blinn9_0",
      "primitives": [
        {
          "attributes": {
            "NORMAL": 9,
            "POSITION": 8,
            "TEXCOORD_0": 10
          },
          "indices": 11,
          "material": 2,
          "mode": 4
        }
      ]
    }
  ],
  "nodes": [
    {
      "children": [
        1
      ],
      "matrix": [
        1.0,
        0.0,
        0.0,
        0.0,
        0.0,
        2.220446049250313e-16,
        -1.0,
        0.0,
        0.0,
        1.0,
        2.220446049250313e-16,
        0.0,
        0.0,
        0.0,
        0.0,
        1.0
      ],
      "name": "Sketchfab_model"
    },
    {
      "children": [
        2
      ],
      "matrix": [
        1.0,
        0.0,
        0.0,
        0.0,
        0.0,
        0.0,
        1.0,
        0.0,
        0.0,
        -1.0,
        0.0,
        0.0,
        0.0,
        0.0,
        0.0,
        1.0
      ],
      "name": "b783f0cc8acb477194b37e8568b34fdb.fbx"
    },
    {
      "children": [
        3
      ],
      "name": "RootNode"
    },
    {
      "children": [
        4,
        5,
        6
      ],
      "matrix": [
        1.0,
        0.0,
        0.0,
        0.0,
        0.0,
        1.0,
        0.0,
        0.0,
        0.0,
        0.0,
        1.0,
        0.0,
        -4.389338493347168,
        -1.9408940076828003,
        0.0,
        1.0
      ],
      "name": "Door"
    },
    {
      "mesh": 0,
      "name": "Door_pasted__pasted__lambert3_0"
    },
    {
      "mesh": 1,
      "name": "Door_blinn8_0"
    },
    {
      "mesh": 2,
      "name": "Door_blinn9_0"
    }
  ],
  "samplers": [
    {
      "magFilter": 9729,
      "minFilter": 9987,
      "wrapS": 10497,
      "wrapT": 10497
    }
  ],
  "scene": 0,
  "scenes": [
    {
      "name": "Sketchfab_Scene",
      "nodes": [
        0
      ]
    }
  ],
  "textures": [
    {
      "sampler": 0,
      "source": 0
    },
    {
      "sampler": 0,
      "source": 1
    }
  ]
}
