{
  "accessors": [
    {
      "bufferView": 1,
      "componentType": 5126,
      "count": 6454,
      "max": [
        1.08529794216156,
        1.0603300333023071,
        1.7623169422149658
      ],
      "min": [
        -1.08529794216156,
        -1.0603300333023071,
        -0.8602380752563477
      ],
      "type": "VEC3"
    },
    {
      "bufferView": 1,
      "byteOffset": 77448,
      "componentType": 5126,
      "count": 6454,
      "max": [
        1.0,
        1.0,
        1.0
      ],
      "min": [
        -1.0,
        -1.0,
        -1.0
      ],
      "type": "VEC3"
    },
    {
      "bufferView": 2,
      "componentType": 5126,
      "count": 6454,
      "max": [
        0.7647058963775635,
        0.929411768913269,
        0.6470588445663452,
        1.0
      ],
      "min": [
        0.2666666805744171,
        0.0,
        0.08235294371843338,
        1.0
      ],
      "type": "VEC4"
    },
    {
      "bufferView": 0,
      "componentType": 5125,
      "count": 38688,
      "type": "SCALAR"
    },
    {
      "bufferView": 1,
      "byteOffset": 154896,
      "componentType": 5126,
      "count": 7776,
      "max": [
        0.5745788216590881,
        0.6107543706893921,
        1.662142038345337
      ],
      "min": [
        -0.5879427790641785,
        -0.5916709899902344,
        1.2045220136642456
      ],
      "type": "VEC3"
    },
    {
      "bufferView": 1,
      "byteOffset": 248208,
      "componentType": 5126,
      "count": 7776,
      "max": [
        0.999991238117218,
        0.9997413158416748,
        0.9816922545433044
      ],
      "min": [
        -0.9999909400939941,
        -0.9997440576553345,
        -0.9816930890083313
      ],
      "type": "VEC3"
    },
    {
      "bufferView": 2,
      "byteOffset": 103264,
      "componentType": 5126,
      "count": 7776,
      "max": [
        0.9960784316062927,
        0.9960784316062927,
        0.9960784316062927,
        1.0
      ],
      "min": [
        0.8470588326454163,
        0.5333333611488342,
        0.0313725508749485,
        1.0
      ],
      "type": "VEC4"
    },
    {
      "bufferView": 0,
      "byteOffset": 154752,
      "componentType": 5125,
      "count": 46656,
      "type": "SCALAR"
    },
    {
      "bufferView": 1,
      "byteOffset": 341520,
      "componentType": 5126,
      "count": 7776,
      "max": [
        0.7114375233650208,
        0.33959048986434937,
        1.6449259519577026
      ],
      "min": [
        -0.7247148752212524,
        -0.3203234076499939,
        1.22189199924469
      ],
      "type": "VEC3"
    },
    {
      "bufferView": 1,
      "byteOffset": 434832,
      "componentType": 5126,
      "count": 7776,
      "max": [
        0.9997686147689819,
        0.9997996091842651,
        0.9817175269126892
      ],
      "min": [
        -0.9997687339782715,
        -0.9997984170913696,
        -0.9817169308662415
      ],
      "type": "VEC3"
    },
    {
      "bufferView": 2,
      "byteOffset": 227680,
      "componentType": 5126,
      "count": 7776,
      "max": [
        0.9843137264251709,
        0.9843137264251709,
        0.9803921580314636,
        1.0
      ],
      "min": [
        0.8470588326454163,
        0.5333333611488342,
        0.0313725508749485,
        1.0
      ],
      "type": "VEC4"
    },
    {
      "bufferView": 0,
      "byteOffset": 341376,
      "componentType": 5125,
      "count": 46656,
      "type": "SCALAR"
    },
    {
      "bufferView": 1,
      "byteOffset": 528144,
      "componentType": 5126,
      "count": 7776,
      "max": [
        0.36889898777008057,
        0.7392570972442627,
        1.6578700542449951
      ],
      "min": [
        -0.3821125030517578,
        -0.7201281785964966,
        1.2347660064697266
      ],
      "type": "VEC3"
    },
    {
      "bufferView": 1,
      "byteOffset": 621456,
      "componentType": 5126,
      "count": 7776,
      "max": [
        0.9997696876525879,
        0.9999701380729675,
        0.9814382195472717
      ],
      "min": [
        -0.9997684359550476,
        -0.9999715089797974,
        -0.9814403653144836
      ],
      "type": "VEC3"
    },
    {
      "bufferView": 2,
      "byteOffset": 352096,
      "componentType": 5126,
      "count": 7776,
      "max": [
        1.0,
        1.0,
        1.0,
        1.0
      ],
      "min": [
        0.8470588326454163,
        0.5333333611488342,
        0.0313725508749485,
        1.0
      ],
      "type": "VEC4"
    },
    {
      "bufferView": 0,
      "byteOffset": 528000,
      "componentType": 5125,
      "count": 46656,
      "type": "SCALAR"
    }
  ],
  "asset": {
    "extras": {
      "author": "harri.wildridge (https://sketchfab.com/harri.wildridge)",
      "license": "CC-BY-4.0 (http://creativecommons.org/licenses/by/4.0/)",
      "source": "https://sketchfab.com/3d-models/birthday-gift-98e2743b7ddf401583d0ce5440cb0198",
      "title": "Birthday Gift"
    },
    "generator": "Sketchfab-12.78.0",
    "version": "2.0"
  },
  "bufferViews": [
    {
      "buffer": 0,
      "byteLength": 714624,
      "name": "floatBufferViews",
      "target": 34963
    },
    {
      "buffer": 0,
      "byteLength": 714768,
      "byteOffset": 714624,
      "byteStride": 12,
      "name": "floatBufferViews",
      "target": 34962
    },
    {
      "buffer": 0,
      "byteLength": 476512,
      "byteOffset": 1429392,
      "byteStride": 16,
      "name": "floatBufferViews",
      "target": 34962
    }
  ],
  "buffers": [
    {
      "byteLength": 1905904,
      "uri": "scene.bin"
    }
  ],
  "materials": [
    {
      "doubleSided": true,
      "name": "None",
      "pbrMetallicRoughness": {
        "metallicFactor": 0.0,
        "roughnessFactor": 0.6
      }
    }
  ],
  "meshes": [
    {
      "name": "Object_0",
      "primitives": [
        {
          "attributes": {
            "COLOR_0": 2,
            "NORMAL": 1,
            "POSITION": 0
          },
          "indices": 3,
          "material": 0,
          "mode": 4
        }
      ]
    },
    {
      "name": "Object_1",
      "primitives": [
        {
          "attributes": {
            "COLOR_0": 6,
            "NORMAL": 5,
            "POSITION": 4
          },
          "indices": 7,
          "material": 0,
          "mode": 4
        }
      ]
    },
    {
      "name": "Object_2",
      "primitives": [
        {
          "attributes": {
            "COLOR_0": 10,
            "NORMAL": 9,
            "POSITION": 8
          },
          "indices": 11,
          "material": 0,
          "mode": 4
        }
      ]
    },
    {
      "name": "Object_3",
      "primitives": [
        {
          "attributes": {
            "COLOR_0": 14,
            "NORMAL": 13,
            "POSITION": 12
          },
          "indices": 15,
          "material": 0,
          "mode": 4
        }
      ]
    }
  ],
  "nodes": [
    {
      "children": [
        1
      ],
      "matrix": [
        1.0,
        0.0,
        0.0,
        0.0,
        0.0,
        2.220446049250313e-16,
        -1.0,
        0.0,
        0.0,
        1.0,
        2.220446049250313e-16,
        0.0,
        0.0,
        0.0,
        0.0,
        1.0
      ],
      "name": "Sketchfab_model"
    },
    {
      "children": [
        2,
        3,
        4,
        5
      ],
      "name": "BirthdayGift.obj.cleaner.materialmerger.gles"
    },
    {
      "mesh": 0,
      "name": "Object_2"
    },
    {
      "mesh": 1,
      "name": "Object_3"
    },
    {
      "mesh": 2,
      "name": "Object_4"
    },
    {
      "mesh": 3,
      "name": "Object_5"
    }
  ],
  "scene": 0,
  "scenes": [
    {
      "name": "Sketchfab_Scene",
      "nodes": [
        0
      ]
    }
  ]
}
