{
  "accessors": [
    {
      "bufferView": 2,
      "componentType": 5126,
      "count": 1805,
      "max": [
        21.017662048339844,
        -0.2827186584472656,
        10.712697982788086
      ],
      "min": [
        -5.777702331542969,
        -118.2327651977539,
        -15.245999336242676
      ],
      "type": "VEC3"
    },
    {
      "bufferView": 2,
      "byteOffset": 21660,
      "componentType": 5126,
      "count": 1805,
      "max": [
        0.999995231628418,
        0.021590158343315125,
        0.9999999403953552
      ],
      "min": [
        -0.9999967813491821,
        -1.0,
        -1.0
      ],
      "type": "VEC3"
    },
    {
      "bufferView": 1,
      "componentType": 5126,
      "count": 1805,
      "max": [
        3.3133137226104736,
        0.9791119694709778
      ],
      "min": [
        0.11217287182807922,
        0.04393017292022705
      ],
      "type": "VEC2"
    },
    {
      "bufferView": 0,
      "componentType": 5125,
      "count": 8340,
      "type": "SCALAR"
    },
    {
      "bufferView": 2,
      "byteOffset": 43320,
      "componentType": 5126,
      "count": 916,
      "max": [
        240.53709411621094,
        57.55237579345703,
        186.69473266601563
      ],
      "min": [
        89.94512939453125,
        51.41640090942383,
        124.77178955078125
      ],
      "type": "VEC3"
    },
    {
      "bufferView": 2,
      "byteOffset": 54312,
      "componentType": 5126,
      "count": 916,
      "max": [
        0.9906331300735474,
        1.0,
        0.9895124435424805
      ],
      "min": [
        -0.9867201447486877,
        -1.0,
        -0.9999596476554871
      ],
      "type": "VEC3"
    },
    {
      "bufferView": 1,
      "byteOffset": 14440,
      "componentType": 5126,
      "count": 916,
      "max": [
        0.996668815612793,
        0.9767681360244751
      ],
      "min": [
        0.023000478744506836,
        0.02351832389831543
      ],
      "type": "VEC2"
    },
    {
      "bufferView": 0,
      "byteOffset": 33360,
      "componentType": 5125,
      "count": 4488,
      "type": "SCALAR"
    },
    {
      "bufferView": 2,
      "byteOffset": 65304,
      "componentType": 5126,
      "count": 1685,
      "max": [
        238.47715759277344,
        57.55342102050781,
        185.17636108398438
      ],
      "min": [
        91.97013854980469,
        56.00108337402344,
        126.26834106445313
      ],
      "type": "VEC3"
    },
    {
      "bufferView": 2,
      "byteOffset": 85524,
      "componentType": 5126,
      "count": 1685,
      "max": [
        0.9999874830245972,
        1.0,
        0.9999873042106628
      ],
      "min": [
        -0.9999873042106628,
        -0.016632894054055214,
        -0.9999873042106628
      ],
      "type": "VEC3"
    },
    {
      "bufferView": 1,
      "byteOffset": 21768,
      "componentType": 5126,
      "count": 1685,
      "max": [
        0.9955117106437683,
        1.9674336910247803
      ],
      "min": [
        0.00235403748229146,
        1.0131231546401978
      ],
      "type": "VEC2"
    },
    {
      "bufferView": 0,
      "byteOffset": 51312,
      "componentType": 5125,
      "count": 8208,
      "type": "SCALAR"
    },
    {
      "bufferView": 2,
      "byteOffset": 105744,
      "componentType": 5126,
      "count": 2233,
      "max": [
        241.28836059570313,
        57.164119720458984,
        187.20697021484375
      ],
      "min": [
        89.19410705566406,
        52.238067626953125,
        124.25958251953125
      ],
      "type": "VEC3"
    },
    {
      "bufferView": 2,
      "byteOffset": 132540,
      "componentType": 5126,
      "count": 2233,
      "max": [
        1.0,
        1.0,
        1.0
      ],
      "min": [
        -1.0,
        -0.9950263500213623,
        -1.0
      ],
      "type": "VEC3"
    },
    {
      "bufferView": 3,
      "componentType": 5126,
      "count": 2233,
      "max": [
        1.0,
        0.7308341264724731,
        1.0,
        1.0
      ],
      "min": [
        -1.0,
        -0.7294870615005493,
        -1.0,
        1.0
      ],
      "type": "VEC4"
    },
    {
      "bufferView": 1,
      "byteOffset": 35248,
      "componentType": 5126,
      "count": 2233,
      "max": [
        -2.117642402648926,
        0.46987682580947876
      ],
      "min": [
        -4.908897399902344,
        0.09322327375411987
      ],
      "type": "VEC2"
    },
    {
      "bufferView": 0,
      "byteOffset": 84144,
      "componentType": 5125,
      "count": 12384,
      "type": "SCALAR"
    },
    {
      "bufferView": 2,
      "byteOffset": 159336,
      "componentType": 5126,
      "count": 884,
      "max": [
        232.8346405029297,
        56.40799331665039,
        181.70620727539063
      ],
      "min": [
        97.60199737548828,
        55.44457244873047,
        129.76612854003906
      ],
      "type": "VEC3"
    },
    {
      "bufferView": 2,
      "byteOffset": 169944,
      "componentType": 5126,
      "count": 884,
      "max": [
        0.9996111392974854,
        1.0,
        0.9877660870552063
      ],
      "min": [
        -0.9992345571517944,
        -0.3374335467815399,
        -0.9674844145774841
      ],
      "type": "VEC3"
    },
    {
      "bufferView": 1,
      "byteOffset": 53112,
      "componentType": 5126,
      "count": 884,
      "max": [
        1.934464931488037,
        0.3834477663040161
      ],
      "min": [
        1.0718903541564941,
        0.05215054750442505
      ],
      "type": "VEC2"
    },
    {
      "bufferView": 0,
      "byteOffset": 133680,
      "componentType": 5125,
      "count": 4992,
      "type": "SCALAR"
    },
    {
      "bufferView": 2,
      "byteOffset": 180552,
      "componentType": 5126,
      "count": 265,
      "max": [
        240.40130615234375,
        55.26466369628906,
        186.36245727539063
      ],
      "min": [
        90.08135986328125,
        54.26476287841797,
        125.1036376953125
      ],
      "type": "VEC3"
    },
    {
      "bufferView": 2,
      "byteOffset": 183732,
      "componentType": 5126,
      "count": 265,
      "max": [
        1.0,
        0.3270537555217743,
        0.9999998211860657
      ],
      "min": [
        -1.0,
        -0.3217644989490509,
        -0.9999997615814209
      ],
      "type": "VEC3"
    },
    {
      "bufferView": 1,
      "byteOffset": 60184,
      "componentType": 5126,
      "count": 265,
      "max": [
        2.9832985401153564,
        0.5541986227035522
      ],
      "min": [
        2.0172014236450195,
        0.49533313512802124
      ],
      "type": "VEC2"
    },
    {
      "bufferView": 0,
      "byteOffset": 153648,
      "componentType": 5125,
      "count": 1248,
      "type": "SCALAR"
    },
    {
      "bufferView": 2,
      "byteOffset": 186912,
      "componentType": 5126,
      "count": 153,
      "max": [
        103.0792236328125,
        57.48188781738281,
        132.65757751464844
      ],
      "min": [
        99.9377212524414,
        56.416053771972656,
        129.57713317871094
      ],
      "type": "VEC3"
    },
    {
      "bufferView": 2,
      "byteOffset": 188748,
      "componentType": 5126,
      "count": 153,
      "max": [
        0.9991306066513062,
        0.999922513961792,
        0.9991310238838196
      ],
      "min": [
        -0.999130368232727,
        -4.369554517325014e-06,
        -0.9991298913955688
      ],
      "type": "VEC3"
    },
    {
      "bufferView": 1,
      "byteOffset": 62304,
      "componentType": 5126,
      "count": 153,
      "max": [
        0.8887850642204285,
        1.4079989194869995
      ],
      "min": [
        0.5082036256790161,
        1.3446013927459717
      ],
      "type": "VEC2"
    },
    {
      "bufferView": 0,
      "byteOffset": 158640,
      "componentType": 5125,
      "count": 768,
      "type": "SCALAR"
    },
    {
      "bufferView": 2,
      "byteOffset": 190584,
      "componentType": 5126,
      "count": 156,
      "max": [
        232.8346405029297,
        56.633872985839844,
        181.70620727539063
      ],
      "min": [
        97.60199737548828,
        55.89902114868164,
        129.76612854003906
      ],
      "type": "VEC3"
    },
    {
      "bufferView": 2,
      "byteOffset": 192456,
      "componentType": 5126,
      "count": 156,
      "max": [
        0.9996111392974854,
        0.30623674392700195,
        0.9895124435424805
      ],
      "min": [
        -0.9992345571517944,
        -0.4037140905857086,
        -0.9999596476554871
      ],
      "type": "VEC3"
    },
    {
      "bufferView": 1,
      "byteOffset": 63528,
      "componentType": 5126,
      "count": 156,
      "max": [
        1.934464931488037,
        0.3834477663040161
      ],
      "min": [
        1.0718903541564941,
        0.05215054750442505
      ],
      "type": "VEC2"
    },
    {
      "bufferView": 0,
      "byteOffset": 161712,
      "componentType": 5125,
      "count": 624,
      "type": "SCALAR"
    }
  ],
  "asset": {
    "extras": {
      "author": "Leonard Garcia (https://sketchfab.com/Leonard_Garcia0310)",
      "license": "CC-BY-NC-ND-4.0 (http://creativecommons.org/licenses/by-nc-nd/4.0/)",
      "source": "https://sketchfab.com/3d-models/leonard-garcia-poker-table-95d7a48c30354477a170af31cbcb513c",
      "title": "Leonard_Garcia_Poker_Table"
    },
    "generator": "Sketchfab-12.67.0",
    "version": "2.0"
  },
  "bufferViews": [
    {
      "buffer": 0,
      "byteLength": 164208,
      "name": "floatBufferViews",
      "target": 34963
    },
    {
      "buffer": 0,
      "byteLength": 64776,
      "byteOffset": 164208,
      "byteStride": 8,
      "name": "floatBufferViews",
      "target": 34962
    },
    {
      "buffer": 0,
      "byteLength": 194328,
      "byteOffset": 228984,
      "byteStride": 12,
      "name": "floatBufferViews",
      "target": 34962
    },
    {
      "buffer": 0,
      "byteLength": 35728,
      "byteOffset": 423312,
      "byteStride": 16,
      "name": "floatBufferViews",
      "target": 34962
    }
  ],
  "buffers": [
    {
      "byteLength": 459040,
      "uri": "scene.bin"
    }
  ],
  "images": [
    {
      "uri": "textures/Wood_Top_Mat_baseColor.jpeg"
    },
    {
      "uri": "textures/Cup_Holder1_baseColor.jpeg"
    },
    {
      "uri": "textures/aiStandardSurface1_baseColor.png"
    },
    {
      "uri": "textures/aiStandardSurface1_metallicRoughness.png"
    },
    {
      "uri": "textures/aiStandardSurface1_normal.png"
    },
    {
      "uri": "textures/Green_Tweed_Top_baseColor.jpeg"
    },
    {
      "uri": "textures/Wood_Trim_baseColor.jpeg"
    },
    {
      "uri": "textures/Wood_Trim_metallicRoughness.png"
    }
  ],
  "materials": [
    {
      "doubleSided": true,
      "name": "Metal_Legs",
      "pbrMetallicRoughness": {
        "baseColorFactor": [
          0.5443978658536586,
          0.5443978658536586,
          0.5443978658536586,
          1.0
        ],
        "roughnessFactor": 0.2029344512195122
      }
    },
    {
      "doubleSided": true,
      "name": "Wood_Top_Mat",
      "pbrMetallicRoughness": {
        "baseColorTexture": {
          "index": 0
        },
        "metallicFactor": 0.0,
        "roughnessFactor": 0.6
      }
    },
    {
      "doubleSided": true,
      "name": "Cup_Holder1",
      "pbrMetallicRoughness": {
        "baseColorTexture": {
          "index": 1
        },
        "metallicFactor": 0.0,
        "roughnessFactor": 0.6
      }
    },
    {
      "doubleSided": true,
      "name": "aiStandardSurface1",
      "normalTexture": {
        "index": 4
      },
      "pbrMetallicRoughness": {
        "baseColorTexture": {
          "index": 2
        },
        "metallicRoughnessTexture": {
          "index": 3
        }
      }
    },
    {
      "doubleSided": true,
      "name": "Green_Tweed_Top",
      "pbrMetallicRoughness": {
        "baseColorTexture": {
          "index": 5
        },
        "metallicFactor": 0.0,
        "roughnessFactor": 0.6
      }
    },
    {
      "doubleSided": true,
      "name": "Wood_Trim",
      "pbrMetallicRoughness": {
        "baseColorTexture": {
          "index": 6
        },
        "metallicRoughnessTexture": {
          "index": 7
        },
        "roughnessFactor": 0.6
      }
    },
    {
      "doubleSided": true,
      "name": "lambert1",
      "pbrMetallicRoughness": {
        "baseColorFactor": [
          0.5,
          0.5,
          0.5,
          1.0
        ],
        "metallicFactor": 0.0,
        "roughnessFactor": 0.6
      }
    },
    {
      "doubleSided": true,
      "name": "Border_Blach",
      "pbrMetallicRoughness": {
        "metallicFactor": 0.0,
        "roughnessFactor": 0.6
      }
    }
  ],
  "meshes": [
    {
      "name": "Table_Legs_UV_Metal_Legs_0",
      "primitives": [
        {
          "attributes": {
            "NORMAL": 1,
            "POSITION": 0,
            "TEXCOORD_0": 2
          },
          "indices": 3,
          "material": 0,
          "mode": 4
        }
      ]
    },
    {
      "name": "Table_Top_Dup_Wood_Top_Mat_0",
      "primitives": [
        {
          "attributes": {
            "NORMAL": 5,
            "POSITION": 4,
            "TEXCOORD_0": 6
          },
          "indices": 7,
          "material": 1,
          "mode": 4
        }
      ]
    },
    {
      "name": "Table_Top_Dup_Cup_Holder1_0",
      "primitives": [
        {
          "attributes": {
            "NORMAL": 9,
            "POSITION": 8,
            "TEXCOORD_0": 10
          },
          "indices": 11,
          "material": 2,
          "mode": 4
        }
      ]
    },
    {
      "name": "Table_Top_Dup_aiStandardSurface1_0",
      "primitives": [
        {
          "attributes": {
            "NORMAL": 13,
            "POSITION": 12,
            "TANGENT": 14,
            "TEXCOORD_0": 15
          },
          "indices": 16,
          "material": 3,
          "mode": 4
        }
      ]
    },
    {
      "name": "Table_Top_Dup_Green_Tweed_Top_0",
      "primitives": [
        {
          "attributes": {
            "NORMAL": 18,
            "POSITION": 17,
            "TEXCOORD_0": 19
          },
          "indices": 20,
          "material": 4,
          "mode": 4
        }
      ]
    },
    {
      "name": "Table_Top_Dup_Wood_Trim_0",
      "primitives": [
        {
          "attributes": {
            "NORMAL": 22,
            "POSITION": 21,
            "TEXCOORD_0": 23
          },
          "indices": 24,
          "material": 5,
          "mode": 4
        }
      ]
    },
    {
      "name": "Table_Top_Dup_lambert1_0",
      "primitives": [
        {
          "attributes": {
            "NORMAL": 26,
            "POSITION": 25,
            "TEXCOORD_0": 27
          },
          "indices": 28,
          "material": 6,
          "mode": 4
        }
      ]
    },
    {
      "name": "Table_Top_Dup_Border_Blach_0",
      "primitives": [
        {
          "attributes": {
            "NORMAL": 30,
            "POSITION": 29,
            "TEXCOORD_0": 31
          },
          "indices": 32,
          "material": 7,
          "mode": 4
        }
      ]
    }
  ],
  "nodes": [
    {
      "children": [
        1
      ],
      "matrix": [
        1.0,
        0.0,
        0.0,
        0.0,
        0.0,
        2.220446049250313e-16,
        -1.0,
        0.0,
        0.0,
        1.0,
        2.220446049250313e-16,
        0.0,
        0.0,
        0.0,
        0.0,
        1.0
      ],
      "name": "Sketchfab_model"
    },
    {
      "children": [
        2
      ],
      "matrix": [
        1.0,
        0.0,
        0.0,
        0.0,
        0.0,
        0.0,
        1.0,
        0.0,
        0.0,
        -1.0,
        0.0,
        0.0,
        0.0,
        0.0,
        0.0,
        1.0
      ],
      "name": "9000f1f10e1a4636a33236fed4e97d80.fbx"
    },
    {
      "children": [
        3,
        6
      ],
      "name": "RootNode"
    },
    {
      "children": [
        4
      ],
      "matrix": [
        0.03280840069055557,
        0.0,
        0.0,
        0.0,
        0.0,
        0.03280840069055557,
        0.0,
        0.0,
        0.0,
        0.0,
        0.03280840069055557,
        0.0,
        0.0,
        0.0,
        0.0,
        1.0
      ],
      "name": "Append_Pool_Table"
    },
    {
      "children": [
        5
      ],
      "matrix": [
        3.684039837464735e-16,
        0.0,
        -1.6591440439224243,
        0.0,
        0.0,
        0.3323248028755188,
        0.0,
        0.0,
        4.297805309295654,
        0.0,
        9.543044819472555e-16,
        0.0,
        175.9481658935547,
        40.78042984008789,
        257.2713928222656,
        1.0
      ],
      "name": "Table_Legs_UV"
    },
    {
      "mesh": 0,
      "name": "Table_Legs_UV_Metal_Legs_0"
    },
    {
      "children": [
        7,
        8,
        9,
        10,
        11,
        12,
        13
      ],
      "matrix": [
        0.03280840069055557,
        0.0,
        0.0,
        0.0,
        0.0,
        0.03280840069055557,
        0.0,
        0.0,
        0.0,
        0.0,
        0.03280840069055557,
        0.0,
        0.0,
        -0.3863779604434967,
        2.91243314743042,
        1.0
      ],
      "name": "Table_Top_Dup"
    },
    {
      "mesh": 1,
      "name": "Table_Top_Dup_Wood_Top_Mat_0"
    },
    {
      "mesh": 2,
      "name": "Table_Top_Dup_Cup_Holder1_0"
    },
    {
      "mesh": 3,
      "name": "Table_Top_Dup_aiStandardSurface1_0"
    },
    {
      "mesh": 4,
      "name": "Table_Top_Dup_Green_Tweed_Top_0"
    },
    {
      "mesh": 5,
      "name": "Table_Top_Dup_Wood_Trim_0"
    },
    {
      "mesh": 6,
      "name": "Table_Top_Dup_lambert1_0"
    },
    {
      "mesh": 7,
      "name": "Table_Top_Dup_Border_Blach_0"
    }
  ],
  "samplers": [
    {
      "magFilter": 9729,
      "minFilter": 9987,
      "wrapS": 10497,
      "wrapT": 10497
    }
  ],
  "scene": 0,
  "scenes": [
    {
      "name": "Sketchfab_Scene",
      "nodes": [
        0
      ]
    }
  ],
  "textures": [
    {
      "sampler": 0,
      "source": 0
    },
    {
      "sampler": 0,
      "source": 1
    },
    {
      "sampler": 0,
      "source": 2
    },
    {
      "sampler": 0,
      "source": 3
    },
    {
      "sampler": 0,
      "source": 4
    },
    {
      "sampler": 0,
      "source": 5
    },
    {
      "sampler": 0,
      "source": 6
    },
    {
      "sampler": 0,
      "source": 7
    }
  ]
}
