{
  "accessors": [
    {
      "bufferView": 2,
      "componentType": 5126,
      "count": 1010,
      "max": [
        0.27132701873779297,
        0.27149301767349243,
        0.2500140070915222
      ],
      "min": [
        0.0027260035276412964,
        0.0027290135622024536,
        0.07327490299940109
      ],
      "type": "VEC3"
    },
    {
      "bufferView": 2,
      "byteOffset": 12120,
      "componentType": 5126,
      "count": 1010,
      "max": [
        0.9995929002761841,
        0.9989843964576721,
        1.0
      ],
      "min": [
        -0.9971587061882019,
        -0.9989843964576721,
        -0.9689594507217407
      ],
      "type": "VEC3"
    },
    {
      "bufferView": 1,
      "componentType": 5126,
      "count": 1010,
      "max": [
        1.7654399871826172,
        0.4908350706100464
      ],
      "min": [
        -0.7876740097999573,
        -0.021190643310546875
      ],
      "type": "VEC2"
    },
    {
      "bufferView": 0,
      "componentType": 5125,
      "count": 5259,
      "type": "SCALAR"
    },
    {
      "bufferView": 2,
      "byteOffset": 24240,
      "componentType": 5126,
      "count": 6162,
      "max": [
        0.27405399084091187,
        0.2742220163345337,
        0.31518301367759705
      ],
      "min": [
        0.0,
        0.0,
        0.0
      ],
      "type": "VEC3"
    },
    {
      "bufferView": 2,
      "byteOffset": 98184,
      "componentType": 5126,
      "count": 6162,
      "max": [
        0.9999997615814209,
        0.9993423223495483,
        0.9999991059303284
      ],
      "min": [
        -0.9998592734336853,
        -0.9994171857833862,
        -0.9999991059303284
      ],
      "type": "VEC3"
    },
    {
      "bufferView": 1,
      "byteOffset": 8080,
      "componentType": 5126,
      "count": 6162,
      "max": [
        1.0,
        1.0
      ],
      "min": [
        0.0,
        0.0
      ],
      "type": "VEC2"
    },
    {
      "bufferView": 0,
      "byteOffset": 21036,
      "componentType": 5125,
      "count": 34560,
      "type": "SCALAR"
    }
  ],
  "asset": {
    "extras": {
      "author": "mrxa (https://sketchfab.com/mrxa)",
      "license": "CC-BY-4.0 (http://creativecommons.org/licenses/by/4.0/)",
      "source": "https://sketchfab.com/3d-models/beer-glass-25d2e4dd016640139562a1ad23828ad3",
      "title": "Beer Glass"
    },
    "generator": "Sketchfab-12.67.0",
    "version": "2.0"
  },
  "bufferViews": [
    {
      "buffer": 0,
      "byteLength": 159276,
      "name": "floatBufferViews",
      "target": 34963
    },
    {
      "buffer": 0,
      "byteLength": 57376,
      "byteOffset": 159276,
      "byteStride": 8,
      "name": "floatBufferViews",
      "target": 34962
    },
    {
      "buffer": 0,
      "byteLength": 172128,
      "byteOffset": 216652,
      "byteStride": 12,
      "name": "floatBufferViews",
      "target": 34962
    }
  ],
  "buffers": [
    {
      "byteLength": 388780,
      "uri": "scene.bin"
    }
  ],
  "materials": [
    {
      "doubleSided": true,
      "name": "Pivo",
      "pbrMetallicRoughness": {
        "baseColorFactor": [
          1.0,
          0.49162595204026366,
          0.12554694619288637,
          1.0
        ],
        "metallicFactor": 0.0,
        "roughnessFactor": 0.0
      }
    },
    {
      "alphaMode": "BLEND",
      "doubleSided": true,
      "name": "Staklo",
      "pbrMetallicRoughness": {
        "baseColorFactor": [
          0.6,
          0.6,
          0.6,
          0.15072408536585372
        ],
        "metallicFactor": 0.6480564024390245,
        "roughnessFactor": 0.0
      }
    }
  ],
  "meshes": [
    {
      "name": "Object_0",
      "primitives": [
        {
          "attributes": {
            "NORMAL": 1,
            "POSITION": 0,
            "TEXCOORD_0": 2
          },
          "indices": 3,
          "material": 0,
          "mode": 4
        }
      ]
    },
    {
      "name": "Object_1",
      "primitives": [
        {
          "attributes": {
            "NORMAL": 5,
            "POSITION": 4,
            "TEXCOORD_0": 6
          },
          "indices": 7,
          "material": 1,
          "mode": 4
        }
      ]
    }
  ],
  "nodes": [
    {
      "children": [
        1
      ],
      "matrix": [
        1.0,
        0.0,
        0.0,
        0.0,
        0.0,
        2.220446049250313e-16,
        -1.0,
        0.0,
        0.0,
        1.0,
        2.220446049250313e-16,
        0.0,
        0.0,
        0.0,
        0.0,
        1.0
      ],
      "name": "Sketchfab_model"
    },
    {
      "children": [
        2
      ],
      "matrix": [
        1.0,
        0.0,
        0.0,
        0.0,
        0.0,
        1.0,
        0.0,
        0.0,
        0.0,
        0.0,
        1.0,
        0.0,
        -0.13570836186408997,
        -0.1376834660768509,
        0.009801000356674194,
        1.0
      ],
      "name": "beer glass.obj.cleaner.materialmerger.gles"
    },
    {
      "children": [
        3,
        4
      ],
      "name": "Object_2"
    },
    {
      "mesh": 0,
      "name": "Object_3"
    },
    {
      "mesh": 1,
      "name": "Object_4"
    }
  ],
  "scene": 0,
  "scenes": [
    {
      "name": "Sketchfab_Scene",
      "nodes": [
        0
      ]
    }
  ]
}
