{
  "accessors": [
    {
      "bufferView": 2,
      "componentType": 5126,
      "count": 1659,
      "max": [
        0.33308371901512146,
        3.0000417232513428,
        0.3330835700035095
      ],
      "min": [
        -0.33308348059654236,
        1.7462013959884644,
        -0.3330835998058319
      ],
      "type": "VEC3"
    },
    {
      "bufferView": 2,
      "byteOffset": 19908,
      "componentType": 5126,
      "count": 1659,
      "max": [
        1.0,
        1.0,
        1.0
      ],
      "min": [
        -1.0,
        -1.0,
        -1.0
      ],
      "type": "VEC3"
    },
    {
      "bufferView": 3,
      "componentType": 5126,
      "count": 1659,
      "max": [
        1.0,
        1.0,
        1.0,
        1.0
      ],
      "min": [
        -1.0,
        -1.0,
        -1.0,
        1.0
      ],
      "type": "VEC4"
    },
    {
      "bufferView": 1,
      "componentType": 5126,
      "count": 1659,
      "max": [
        0.9914191961288452,
        0.9791490435600281
      ],
      "min": [
        0.004561600275337696,
        0.018383843824267387
      ],
      "type": "VEC2"
    },
    {
      "bufferView": 1,
      "byteOffset": 13272,
      "componentType": 5126,
      "count": 1659,
      "max": [
        0.9914191961288452,
        0.9791490435600281
      ],
      "min": [
        0.004561600275337696,
        0.018383843824267387
      ],
      "type": "VEC2"
    },
    {
      "bufferView": 1,
      "byteOffset": 26544,
      "componentType": 5126,
      "count": 1659,
      "max": [
        0.9914191961288452,
        0.9791490435600281
      ],
      "min": [
        0.004561600275337696,
        0.018383843824267387
      ],
      "type": "VEC2"
    },
    {
      "bufferView": 1,
      "byteOffset": 39816,
      "componentType": 5126,
      "count": 1659,
      "max": [
        0.9914191961288452,
        0.9791490435600281
      ],
      "min": [
        0.004561600275337696,
        0.018383843824267387
      ],
      "type": "VEC2"
    },
    {
      "bufferView": 1,
      "byteOffset": 53088,
      "componentType": 5126,
      "count": 1659,
      "max": [
        0.9914191961288452,
        0.9791490435600281
      ],
      "min": [
        0.004561600275337696,
        0.018383843824267387
      ],
      "type": "VEC2"
    },
    {
      "bufferView": 1,
      "byteOffset": 66360,
      "componentType": 5126,
      "count": 1659,
      "max": [
        0.9914191961288452,
        0.9791490435600281
      ],
      "min": [
        0.004561600275337696,
        0.018383843824267387
      ],
      "type": "VEC2"
    },
    {
      "bufferView": 0,
      "componentType": 5125,
      "count": 5688,
      "type": "SCALAR"
    }
  ],
  "asset": {
    "extras": {
      "author": "chris_models (https://sketchfab.com/chris_models)",
      "license": "CC-BY-4.0 (http://creativecommons.org/licenses/by/4.0/)",
      "source": "https://sketchfab.com/3d-models/lamp-02-lowpoly-0f5519beb6644e5ea714055382c20d5f",
      "title": "Lamp_02 lowpoly"
    },
    "generator": "Sketchfab-12.66.0",
    "version": "2.0"
  },
  "bufferViews": [
    {
      "buffer": 0,
      "byteLength": 22752,
      "name": "floatBufferViews",
      "target": 34963
    },
    {
      "buffer": 0,
      "byteLength": 79632,
      "byteOffset": 22752,
      "byteStride": 8,
      "name": "floatBufferViews",
      "target": 34962
    },
    {
      "buffer": 0,
      "byteLength": 39816,
      "byteOffset": 102384,
      "byteStride": 12,
      "name": "floatBufferViews",
      "target": 34962
    },
    {
      "buffer": 0,
      "byteLength": 26544,
      "byteOffset": 142200,
      "byteStride": 16,
      "name": "floatBufferViews",
      "target": 34962
    }
  ],
  "buffers": [
    {
      "byteLength": 168744,
      "uri": "scene.bin"
    }
  ],
  "images": [
    {
      "uri": "textures/re_lamp_02_baseColor.jpeg"
    },
    {
      "uri": "textures/re_lamp_02_metallicRoughness.png"
    },
    {
      "uri": "textures/re_lamp_02_emissive.jpeg"
    },
    {
      "uri": "textures/re_lamp_02_normal.jpeg"
    }
  ],
  "materials": [
    {
      "emissiveFactor": [
        1.0,
        1.0,
        1.0
      ],
      "emissiveTexture": {
        "index": 2
      },
      "name": "re_lamp_02",
      "normalTexture": {
        "index": 3
      },
      "occlusionTexture": {
        "index": 1
      },
      "pbrMetallicRoughness": {
        "baseColorTexture": {
          "index": 0
        },
        "metallicFactor": 0.7700076219512195,
        "metallicRoughnessTexture": {
          "index": 1
        },
        "roughnessFactor": 0.8736661585365854
      }
    }
  ],
  "meshes": [
    {
      "name": "Object_0",
      "primitives": [
        {
          "attributes": {
            "NORMAL": 1,
            "POSITION": 0,
            "TANGENT": 2,
            "TEXCOORD_0": 3,
            "TEXCOORD_1": 4,
            "TEXCOORD_2": 5,
            "TEXCOORD_3": 6,
            "TEXCOORD_4": 7,
            "TEXCOORD_5": 8
          },
          "indices": 9,
          "material": 0,
          "mode": 4
        }
      ]
    }
  ],
  "nodes": [
    {
      "children": [
        1
      ],
      "matrix": [
        1.0,
        0.0,
        0.0,
        0.0,
        0.0,
        2.220446049250313e-16,
        -1.0,
        0.0,
        0.0,
        1.0,
        2.220446049250313e-16,
        0.0,
        0.0,
        0.0,
        0.0,
        1.0
      ],
      "name": "Sketchfab_model"
    },
    {
      "children": [
        2
      ],
      "name": "root"
    },
    {
      "children": [
        3
      ],
      "matrix": [
        1.0,
        0.0,
        0.0,
        0.0,
        0.0,
        2.220446049250313e-16,
        1.0,
        0.0,
        0.0,
        -1.0,
        2.220446049250313e-16,
        0.0,
        0.0,
        0.0,
        0.0,
        1.0
      ],
      "name": "GLTF_SceneRootNode"
    },
    {
      "children": [
        4
      ],
      "matrix": [
        1.0,
        0.0,
        0.0,
        0.0,
        0.0,
        0.999999999999999,
        -4.371138828673791e-08,
        0.0,
        0.0,
        4.371138828673791e-08,
        0.999999999999999,
        0.0,
        0.0,
        0.09000000357627869,
        -0.23999999463558197,
        1.0
      ],
      "name": "re_lamp_02_0"
    },
    {
      "mesh": 0,
      "name": "Object_4"
    }
  ],
  "samplers": [
    {
      "magFilter": 9729,
      "minFilter": 9729,
      "wrapS": 10497,
      "wrapT": 10497
    }
  ],
  "scene": 0,
  "scenes": [
    {
      "name": "Sketchfab_Scene",
      "nodes": [
        0
      ]
    }
  ],
  "textures": [
    {
      "sampler": 0,
      "source": 0
    },
    {
      "sampler": 0,
      "source": 1
    },
    {
      "sampler": 0,
      "source": 2
    },
    {
      "sampler": 0,
      "source": 3
    }
  ]
}
