{
  "accessors": [
    {
      "bufferView": 2,
      "componentType": 5126,
      "count": 65532,
      "max": [
        2.6803081035614014,
        0.7842839956283569,
        4.176624774932861
      ],
      "min": [
        -1.7810269594192505,
        -3.813124895095825,
        0.8493490219116211
      ],
      "type": "VEC3"
    },
    {
      "bufferView": 2,
      "byteOffset": 786384,
      "componentType": 5126,
      "count": 65532,
      "max": [
        0.9999228715896606,
        0.9998127818107605,
        0.9998611211776733
      ],
      "min": [
        -0.9999605417251587,
        -0.9997687339782715,
        -0.9999903440475464
      ],
      "type": "VEC3"
    },
    {
      "bufferView": 1,
      "componentType": 5126,
      "count": 65532,
      "max": [
        0.9919430017471313,
        0.9918709993362427
      ],
      "min": [
        0.008085999637842178,
        0.008302999660372734
      ],
      "type": "VEC2"
    },
    {
      "bufferView": 0,
      "componentType": 5125,
      "count": 329115,
      "type": "SCALAR"
    },
    {
      "bufferView": 2,
      "byteOffset": 1572768,
      "componentType": 5126,
      "count": 2951,
      "max": [
        1.854956030845642,
        0.6070399880409241,
        3.029534101486206
      ],
      "min": [
        -1.5234780311584473,
        -2.262002944946289,
        1.0917119979858398
      ],
      "type": "VEC3"
    },
    {
      "bufferView": 2,
      "byteOffset": 1608180,
      "componentType": 5126,
      "count": 2951,
      "max": [
        0.8839733004570007,
        0.8835367560386658,
        0.7506521344184875
      ],
      "min": [
        -0.9965753555297852,
        -0.5370830297470093,
        -0.47998812794685364
      ],
      "type": "VEC3"
    },
    {
      "bufferView": 1,
      "byteOffset": 524256,
      "componentType": 5126,
      "count": 2951,
      "max": [
        0.9897090196609497,
        0.6911929845809937
      ],
      "min": [
        0.35232600569725037,
        0.2845410108566284
      ],
      "type": "VEC2"
    },
    {
      "bufferView": 0,
      "byteOffset": 1316460,
      "componentType": 5125,
      "count": 13395,
      "type": "SCALAR"
    },
    {
      "bufferView": 2,
      "byteOffset": 1643592,
      "componentType": 5126,
      "count": 26494,
      "max": [
        2.6559979915618896,
        0.7563459873199463,
        4.140291213989258
      ],
      "min": [
        -1.813230037689209,
        -3.860297918319702,
        0.8493490219116211
      ],
      "type": "VEC3"
    },
    {
      "bufferView": 2,
      "byteOffset": 1961520,
      "componentType": 5126,
      "count": 26494,
      "max": [
        0.9988110065460205,
        0.9997162222862244,
        0.9370483756065369
      ],
      "min": [
        -0.999975860118866,
        -0.9994057416915894,
        -0.9999998807907104
      ],
      "type": "VEC3"
    },
    {
      "bufferView": 1,
      "byteOffset": 547864,
      "componentType": 5126,
      "count": 26494,
      "max": [
        0.9914630055427551,
        0.9918959736824036
      ],
      "min": [
        0.008070999756455421,
        0.41182899475097656
      ],
      "type": "VEC2"
    },
    {
      "bufferView": 0,
      "byteOffset": 1370040,
      "componentType": 5125,
      "count": 137466,
      "type": "SCALAR"
    }
  ],
  "asset": {
    "extras": {
      "author": "jtressle (https://sketchfab.com/jtressle)",
      "license": "CC-BY-4.0 (http://creativecommons.org/licenses/by/4.0/)",
      "source": "https://sketchfab.com/3d-models/comfy-chair-3054428ce7e04726aae53c0ffb70f0e0",
      "title": "Comfy Chair"
    },
    "generator": "Sketchfab-12.67.0",
    "version": "2.0"
  },
  "bufferViews": [
    {
      "buffer": 0,
      "byteLength": 1919904,
      "name": "floatBufferViews",
      "target": 34963
    },
    {
      "buffer": 0,
      "byteLength": 759816,
      "byteOffset": 1919904,
      "byteStride": 8,
      "name": "floatBufferViews",
      "target": 34962
    },
    {
      "buffer": 0,
      "byteLength": 2279448,
      "byteOffset": 2679720,
      "byteStride": 12,
      "name": "floatBufferViews",
      "target": 34962
    }
  ],
  "buffers": [
    {
      "byteLength": 4959168,
      "uri": "scene.bin"
    }
  ],
  "extensionsUsed": [
    "KHR_materials_unlit"
  ],
  "images": [
    {
      "uri": "textures/material0000_baseColor.jpeg"
    },
    {
      "uri": "textures/material0001_baseColor.jpeg"
    }
  ],
  "materials": [
    {
      "doubleSided": true,
      "extensions": {
        "KHR_materials_unlit": {}
      },
      "name": "material0000",
      "pbrMetallicRoughness": {
        "baseColorTexture": {
          "index": 0
        },
        "metallicFactor": 0.0
      }
    },
    {
      "doubleSided": true,
      "extensions": {
        "KHR_materials_unlit": {}
      },
      "name": "material0001",
      "pbrMetallicRoughness": {
        "baseColorTexture": {
          "index": 1
        },
        "metallicFactor": 0.0
      }
    }
  ],
  "meshes": [
    {
      "name": "Object_0",
      "primitives": [
        {
          "attributes": {
            "NORMAL": 1,
            "POSITION": 0,
            "TEXCOORD_0": 2
          },
          "indices": 3,
          "material": 0,
          "mode": 4
        }
      ]
    },
    {
      "name": "Object_1",
      "primitives": [
        {
          "attributes": {
            "NORMAL": 5,
            "POSITION": 4,
            "TEXCOORD_0": 6
          },
          "indices": 7,
          "material": 0,
          "mode": 4
        }
      ]
    },
    {
      "name": "Object_2",
      "primitives": [
        {
          "attributes": {
            "NORMAL": 9,
            "POSITION": 8,
            "TEXCOORD_0": 10
          },
          "indices": 11,
          "material": 1,
          "mode": 4
        }
      ]
    }
  ],
  "nodes": [
    {
      "children": [
        1
      ],
      "matrix": [
        -0.9977611303329468,
        -0.06687860190868378,
        3.163691450993407e-14,
        0.0,
        -0.04626760631799698,
        0.6902658939361573,
        -0.7220749855041503,
        0.0,
        0.048291366547346115,
        -0.7204583883285521,
        -0.6918147802352906,
        0.0,
        0.673590362071991,
        5.414116859436034,
        2.1659739017486586,
        1.0
      ],
      "name": "Sketchfab_model"
    },
    {
      "children": [
        2,
        3,
        4
      ],
      "name": "model.obj.cleaner.materialmerger.gles"
    },
    {
      "mesh": 0,
      "name": "Object_2"
    },
    {
      "mesh": 1,
      "name": "Object_3"
    },
    {
      "mesh": 2,
      "name": "Object_4"
    }
  ],
  "samplers": [
    {
      "magFilter": 9729,
      "minFilter": 9987,
      "wrapS": 10497,
      "wrapT": 10497
    }
  ],
  "scene": 0,
  "scenes": [
    {
      "name": "Sketchfab_Scene",
      "nodes": [
        0
      ]
    }
  ],
  "textures": [
    {
      "sampler": 0,
      "source": 0
    },
    {
      "sampler": 0,
      "source": 1
    }
  ]
}
