{
  "accessors": [
    {
      "bufferView": 2,
      "componentType": 5126,
      "count": 7699,
      "max": [
        0.7396690249443054,
        0.3008500039577484,
        0.32393500208854675
      ],
      "min": [
        -0.7205910086631775,
        0.002075490076094866,
        -0.16710799932479858
      ],
      "type": "VEC3"
    },
    {
      "bufferView": 2,
      "byteOffset": 92388,
      "componentType": 5126,
      "count": 7699,
      "max": [
        0.9999542236328125,
        0.9998921155929565,
        0.9999617338180542
      ],
      "min": [
        -0.9999963641166687,
        -0.9999852180480957,
        -0.9999669790267944
      ],
      "type": "VEC3"
    },
    {
      "bufferView": 3,
      "componentType": 5126,
      "count": 7699,
      "max": [
        0.9999969601631165,
        0.952148973941803,
        0.9999275803565979,
        1.0
      ],
      "min": [
        -0.9996626973152161,
        -0.9997710585594177,
        -0.9973459839820862,
        -1.0
      ],
      "type": "VEC4"
    },
    {
      "bufferView": 1,
      "componentType": 5126,
      "count": 7699,
      "max": [
        0.9998300075531006,
        0.9994999766349792
      ],
      "min": [
        0.0012400200357660651,
        0.0005000000237487257
      ],
      "type": "VEC2"
    },
    {
      "bufferView": 0,
      "componentType": 5125,
      "count": 42738,
      "type": "SCALAR"
    },
    {
      "bufferView": 2,
      "byteOffset": 184776,
      "componentType": 5126,
      "count": 656,
      "max": [
        0.9918149709701538,
        -0.25499600172042847,
        0.37272799015045166
      ],
      "min": [
        -0.9830020070075989,
        -0.3008500039577484,
        -0.3791100084781647
      ],
      "type": "VEC3"
    },
    {
      "bufferView": 2,
      "byteOffset": 192648,
      "componentType": 5126,
      "count": 656,
      "max": [
        0.998277485370636,
        0.9979827404022217,
        0.9932997822761536
      ],
      "min": [
        -0.9982776641845703,
        -0.9979827404022217,
        -0.9932997822761536
      ],
      "type": "VEC3"
    },
    {
      "bufferView": 3,
      "byteOffset": 123184,
      "componentType": 5126,
      "count": 656,
      "max": [
        0.9992698431015015,
        0.997388482093811,
        0.9982776641845703,
        1.0
      ],
      "min": [
        -0.9992607235908508,
        -0.9973922371864319,
        -0.9982776641845703,
        1.0
      ],
      "type": "VEC4"
    },
    {
      "bufferView": 1,
      "byteOffset": 61592,
      "componentType": 5126,
      "count": 656,
      "max": [
        0.986253023147583,
        0.9994999766349792
      ],
      "min": [
        0.0005000000237487257,
        0.0005000000237487257
      ],
      "type": "VEC2"
    },
    {
      "bufferView": 0,
      "byteOffset": 170952,
      "componentType": 5125,
      "count": 1824,
      "type": "SCALAR"
    },
    {
      "bufferView": 2,
      "byteOffset": 200520,
      "componentType": 5126,
      "count": 3276,
      "max": [
        0.9481920003890991,
        0.17256900668144226,
        0.38082700967788696
      ],
      "min": [
        -0.9452319741249084,
        -0.12266000360250473,
        -0.3363719880580902
      ],
      "type": "VEC3"
    },
    {
      "bufferView": 2,
      "byteOffset": 239832,
      "componentType": 5126,
      "count": 3276,
      "max": [
        0.9999893307685852,
        0.9999989867210388,
        0.9999962449073792
      ],
      "min": [
        -0.9999893307685852,
        -1.0,
        -0.999999463558197
      ],
      "type": "VEC3"
    },
    {
      "bufferView": 3,
      "byteOffset": 133680,
      "componentType": 5126,
      "count": 3276,
      "max": [
        1.0,
        0.9998472332954407,
        0.9999871850013733,
        1.0
      ],
      "min": [
        -0.9327211380004883,
        -0.9996469616889954,
        -0.9999980926513672,
        1.0
      ],
      "type": "VEC4"
    },
    {
      "bufferView": 1,
      "byteOffset": 66840,
      "componentType": 5126,
      "count": 3276,
      "max": [
        0.999550998210907,
        0.9943490028381348
      ],
      "min": [
        0.0005512239877134562,
        0.0009869999485090375
      ],
      "type": "VEC2"
    },
    {
      "bufferView": 0,
      "byteOffset": 178248,
      "componentType": 5125,
      "count": 17856,
      "type": "SCALAR"
    },
    {
      "bufferView": 2,
      "byteOffset": 279144,
      "componentType": 5126,
      "count": 3120,
      "max": [
        1.0,
        0.1623390018939972,
        0.37811699509620667
      ],
      "min": [
        -1.0,
        -0.2545590102672577,
        -0.39183101058006287
      ],
      "type": "VEC3"
    },
    {
      "bufferView": 2,
      "byteOffset": 316584,
      "componentType": 5126,
      "count": 3120,
      "max": [
        0.9999998807907104,
        0.9998036623001099,
        1.0
      ],
      "min": [
        -0.9999998807907104,
        -0.9998716711997986,
        -1.0
      ],
      "type": "VEC3"
    },
    {
      "bufferView": 3,
      "byteOffset": 186096,
      "componentType": 5126,
      "count": 3120,
      "max": [
        1.0,
        0.8890740871429443,
        1.0,
        1.0
      ],
      "min": [
        -1.0,
        -0.9256054759025574,
        -1.0,
        1.0
      ],
      "type": "VEC4"
    },
    {
      "bufferView": 1,
      "byteOffset": 93048,
      "componentType": 5126,
      "count": 3120,
      "max": [
        0.9990500211715698,
        0.9894490242004395
      ],
      "min": [
        0.0016710800118744373,
        0.0005000000237487257
      ],
      "type": "VEC2"
    },
    {
      "bufferView": 0,
      "byteOffset": 249672,
      "componentType": 5125,
      "count": 15636,
      "type": "SCALAR"
    },
    {
      "bufferView": 2,
      "byteOffset": 354024,
      "componentType": 5126,
      "count": 1456,
      "max": [
        0.942592978477478,
        -0.11757200211286545,
        0.3802329897880554
      ],
      "min": [
        -0.9400650262832642,
        -0.2556459903717041,
        -0.3342509865760803
      ],
      "type": "VEC3"
    },
    {
      "bufferView": 2,
      "byteOffset": 371496,
      "componentType": 5126,
      "count": 1456,
      "max": [
        0.9999992251396179,
        1.0,
        1.0
      ],
      "min": [
        -0.9999986290931702,
        -1.0,
        -1.0
      ],
      "type": "VEC3"
    },
    {
      "bufferView": 3,
      "byteOffset": 236016,
      "componentType": 5126,
      "count": 1456,
      "max": [
        1.0,
        0.9999985694885254,
        0.7902559638023376,
        1.0
      ],
      "min": [
        -0.994358479976654,
        -0.9999922513961792,
        -0.7890852093696594,
        1.0
      ],
      "type": "VEC4"
    },
    {
      "bufferView": 1,
      "byteOffset": 118008,
      "componentType": 5126,
      "count": 1456,
      "max": [
        0.9990770220756531,
        0.9205390214920044
      ],
      "min": [
        0.004650120157748461,
        0.000195999993593432
      ],
      "type": "VEC2"
    },
    {
      "bufferView": 0,
      "byteOffset": 312216,
      "componentType": 5125,
      "count": 7800,
      "type": "SCALAR"
    },
    {
      "bufferView": 2,
      "byteOffset": 388968,
      "componentType": 5126,
      "count": 2876,
      "max": [
        0.7285730242729187,
        0.024111999198794365,
        0.39183101058006287
      ],
      "min": [
        -0.7143070101737976,
        -0.12471699714660645,
        -0.11624400317668915
      ],
      "type": "VEC3"
    },
    {
      "bufferView": 2,
      "byteOffset": 423480,
      "componentType": 5126,
      "count": 2876,
      "max": [
        0.9999677538871765,
        0.9999823570251465,
        0.9999166131019592
      ],
      "min": [
        -0.9999796152114868,
        -1.0,
        -0.9999213814735413
      ],
      "type": "VEC3"
    },
    {
      "bufferView": 3,
      "byteOffset": 259312,
      "componentType": 5126,
      "count": 2876,
      "max": [
        0.7172513604164124,
        0.999987006187439,
        0.9999997019767761,
        1.0
      ],
      "min": [
        -0.6959784626960754,
        -0.9999993443489075,
        -0.9999973773956299,
        1.0
      ],
      "type": "VEC4"
    },
    {
      "bufferView": 1,
      "byteOffset": 129656,
      "componentType": 5126,
      "count": 2876,
      "max": [
        0.9942209720611572,
        0.9968950152397156
      ],
      "min": [
        0.005499009974300861,
        0.0005000000237487257
      ],
      "type": "VEC2"
    },
    {
      "bufferView": 0,
      "byteOffset": 343416,
      "componentType": 5125,
      "count": 15456,
      "type": "SCALAR"
    }
  ],
  "asset": {
    "extras": {
      "author": "3dimentionalben (https://sketchfab.com/3dimentionalben)",
      "license": "CC-BY-4.0 (http://creativecommons.org/licenses/by/4.0/)",
      "source": "https://sketchfab.com/3d-models/modern-sofa-ac92f6e97eaa43c4ad6cb8f7c65ac43f",
      "title": "Modern  Sofa"
    },
    "generator": "Sketchfab-12.66.0",
    "version": "2.0"
  },
  "bufferViews": [
    {
      "buffer": 0,
      "byteLength": 405240,
      "name": "floatBufferViews",
      "target": 34963
    },
    {
      "buffer": 0,
      "byteLength": 152664,
      "byteOffset": 405240,
      "byteStride": 8,
      "name": "floatBufferViews",
      "target": 34962
    },
    {
      "buffer": 0,
      "byteLength": 457992,
      "byteOffset": 557904,
      "byteStride": 12,
      "name": "floatBufferViews",
      "target": 34962
    },
    {
      "buffer": 0,
      "byteLength": 305328,
      "byteOffset": 1015896,
      "byteStride": 16,
      "name": "floatBufferViews",
      "target": 34962
    }
  ],
  "buffers": [
    {
      "byteLength": 1321224,
      "uri": "scene.bin"
    }
  ],
  "images": [
    {
      "uri": "textures/1004_baseColor.jpeg"
    },
    {
      "uri": "textures/1004_metallicRoughness.png"
    },
    {
      "uri": "textures/1004_emissive.jpeg"
    },
    {
      "uri": "textures/1004_normal.png"
    },
    {
      "uri": "textures/1001_baseColor.jpeg"
    },
    {
      "uri": "textures/1001_metallicRoughness.png"
    },
    {
      "uri": "textures/1001_emissive.jpeg"
    },
    {
      "uri": "textures/1001_normal.png"
    },
    {
      "uri": "textures/1005_baseColor.jpeg"
    },
    {
      "uri": "textures/1005_metallicRoughness.png"
    },
    {
      "uri": "textures/1005_emissive.jpeg"
    },
    {
      "uri": "textures/1005_normal.png"
    },
    {
      "uri": "textures/1003_baseColor.jpeg"
    },
    {
      "uri": "textures/1003_metallicRoughness.png"
    },
    {
      "uri": "textures/1003_emissive.jpeg"
    },
    {
      "uri": "textures/1003_normal.png"
    },
    {
      "uri": "textures/1006_baseColor.jpeg"
    },
    {
      "uri": "textures/1006_metallicRoughness.png"
    },
    {
      "uri": "textures/1006_emissive.jpeg"
    },
    {
      "uri": "textures/1006_normal.png"
    },
    {
      "uri": "textures/1002_baseColor.jpeg"
    },
    {
      "uri": "textures/1002_metallicRoughness.png"
    },
    {
      "uri": "textures/1002_emissive.jpeg"
    },
    {
      "uri": "textures/1002_normal.png"
    }
  ],
  "materials": [
    {
      "doubleSided": true,
      "emissiveFactor": [
        1.0,
        1.0,
        1.0
      ],
      "emissiveTexture": {
        "index": 2
      },
      "name": "1004",
      "normalTexture": {
        "index": 3
      },
      "occlusionTexture": {
        "index": 1
      },
      "pbrMetallicRoughness": {
        "baseColorTexture": {
          "index": 0
        },
        "metallicFactor": 0.0,
        "metallicRoughnessTexture": {
          "index": 1
        }
      }
    },
    {
      "doubleSided": true,
      "emissiveFactor": [
        1.0,
        1.0,
        1.0
      ],
      "emissiveTexture": {
        "index": 6
      },
      "name": "1001",
      "normalTexture": {
        "index": 7
      },
      "occlusionTexture": {
        "index": 5
      },
      "pbrMetallicRoughness": {
        "baseColorTexture": {
          "index": 4
        },
        "metallicRoughnessTexture": {
          "index": 5
        }
      }
    },
    {
      "doubleSided": true,
      "emissiveFactor": [
        1.0,
        1.0,
        1.0
      ],
      "emissiveTexture": {
        "index": 10
      },
      "name": "1005",
      "normalTexture": {
        "index": 11
      },
      "occlusionTexture": {
        "index": 9
      },
      "pbrMetallicRoughness": {
        "baseColorTexture": {
          "index": 8
        },
        "metallicFactor": 0.0,
        "metallicRoughnessTexture": {
          "index": 9
        }
      }
    },
    {
      "doubleSided": true,
      "emissiveFactor": [
        1.0,
        1.0,
        1.0
      ],
      "emissiveTexture": {
        "index": 14
      },
      "name": "1003",
      "normalTexture": {
        "index": 15
      },
      "occlusionTexture": {
        "index": 13
      },
      "pbrMetallicRoughness": {
        "baseColorTexture": {
          "index": 12
        },
        "metallicFactor": 0.0,
        "metallicRoughnessTexture": {
          "index": 13
        }
      }
    },
    {
      "doubleSided": true,
      "emissiveFactor": [
        1.0,
        1.0,
        1.0
      ],
      "emissiveTexture": {
        "index": 18
      },
      "name": "1006",
      "normalTexture": {
        "index": 19
      },
      "occlusionTexture": {
        "index": 17
      },
      "pbrMetallicRoughness": {
        "baseColorTexture": {
          "index": 16
        },
        "metallicFactor": 0.0,
        "metallicRoughnessTexture": {
          "index": 17
        }
      }
    },
    {
      "doubleSided": true,
      "emissiveFactor": [
        1.0,
        1.0,
        1.0
      ],
      "emissiveTexture": {
        "index": 22
      },
      "name": "1002",
      "normalTexture": {
        "index": 23
      },
      "occlusionTexture": {
        "index": 21
      },
      "pbrMetallicRoughness": {
        "baseColorTexture": {
          "index": 20
        },
        "metallicFactor": 0.0,
        "metallicRoughnessTexture": {
          "index": 21
        }
      }
    }
  ],
  "meshes": [
    {
      "name": "defaultMaterial",
      "primitives": [
        {
          "attributes": {
            "NORMAL": 1,
            "POSITION": 0,
            "TANGENT": 2,
            "TEXCOORD_0": 3
          },
          "indices": 4,
          "material": 0,
          "mode": 4
        }
      ]
    },
    {
      "name": "defaultMaterial",
      "primitives": [
        {
          "attributes": {
            "NORMAL": 6,
            "POSITION": 5,
            "TANGENT": 7,
            "TEXCOORD_0": 8
          },
          "indices": 9,
          "material": 1,
          "mode": 4
        }
      ]
    },
    {
      "name": "defaultMaterial",
      "primitives": [
        {
          "attributes": {
            "NORMAL": 11,
            "POSITION": 10,
            "TANGENT": 12,
            "TEXCOORD_0": 13
          },
          "indices": 14,
          "material": 2,
          "mode": 4
        }
      ]
    },
    {
      "name": "defaultMaterial",
      "primitives": [
        {
          "attributes": {
            "NORMAL": 16,
            "POSITION": 15,
            "TANGENT": 17,
            "TEXCOORD_0": 18
          },
          "indices": 19,
          "material": 3,
          "mode": 4
        }
      ]
    },
    {
      "name": "defaultMaterial",
      "primitives": [
        {
          "attributes": {
            "NORMAL": 21,
            "POSITION": 20,
            "TANGENT": 22,
            "TEXCOORD_0": 23
          },
          "indices": 24,
          "material": 4,
          "mode": 4
        }
      ]
    },
    {
      "name": "defaultMaterial",
      "primitives": [
        {
          "attributes": {
            "NORMAL": 26,
            "POSITION": 25,
            "TANGENT": 27,
            "TEXCOORD_0": 28
          },
          "indices": 29,
          "material": 5,
          "mode": 4
        }
      ]
    }
  ],
  "nodes": [
    {
      "children": [
        1
      ],
      "matrix": [
        1.0,
        0.0,
        0.0,
        0.0,
        0.0,
        2.220446049250313e-16,
        -1.0,
        0.0,
        0.0,
        1.0,
        2.220446049250313e-16,
        0.0,
        0.0,
        0.0,
        0.0,
        1.0
      ],
      "name": "Sketchfab_model"
    },
    {
      "children": [
        2
      ],
      "matrix": [
        1.0,
        0.0,
        0.0,
        0.0,
        0.0,
        -4.371139006309477e-08,
        0.999999999999999,
        0.0,
        0.0,
        -0.999999999999999,
        -4.371139006309477e-08,
        0.0,
        0.0,
        0.0,
        0.0,
        1.0
      ],
      "name": "Collada visual scene group"
    },
    {
      "children": [
        3,
        4,
        5,
        6,
        7,
        8
      ],
      "name": "g"
    },
    {
      "mesh": 0,
      "name": "defaultMaterial"
    },
    {
      "mesh": 1,
      "name": "defaultMaterial"
    },
    {
      "mesh": 2,
      "name": "defaultMaterial"
    },
    {
      "mesh": 3,
      "name": "defaultMaterial"
    },
    {
      "mesh": 4,
      "name": "defaultMaterial"
    },
    {
      "mesh": 5,
      "name": "defaultMaterial"
    }
  ],
  "samplers": [
    {
      "magFilter": 9729,
      "minFilter": 9987,
      "wrapS": 10497,
      "wrapT": 10497
    }
  ],
  "scene": 0,
  "scenes": [
    {
      "name": "Sketchfab_Scene",
      "nodes": [
        0
      ]
    }
  ],
  "textures": [
    {
      "sampler": 0,
      "source": 0
    },
    {
      "sampler": 0,
      "source": 1
    },
    {
      "sampler": 0,
      "source": 2
    },
    {
      "sampler": 0,
      "source": 3
    },
    {
      "sampler": 0,
      "source": 4
    },
    {
      "sampler": 0,
      "source": 5
    },
    {
      "sampler": 0,
      "source": 6
    },
    {
      "sampler": 0,
      "source": 7
    },
    {
      "sampler": 0,
      "source": 8
    },
    {
      "sampler": 0,
      "source": 9
    },
    {
      "sampler": 0,
      "source": 10
    },
    {
      "sampler": 0,
      "source": 11
    },
    {
      "sampler": 0,
      "source": 12
    },
    {
      "sampler": 0,
      "source": 13
    },
    {
      "sampler": 0,
      "source": 14
    },
    {
      "sampler": 0,
      "source": 15
    },
    {
      "sampler": 0,
      "source": 16
    },
    {
      "sampler": 0,
      "source": 17
    },
    {
      "sampler": 0,
      "source": 18
    },
    {
      "sampler": 0,
      "source": 19
    },
    {
      "sampler": 0,
      "source": 20
    },
    {
      "sampler": 0,
      "source": 21
    },
    {
      "sampler": 0,
      "source": 22
    },
    {
      "sampler": 0,
      "source": 23
    }
  ]
}
