{
  "accessors": [
    {
      "bufferView": 2,
      "componentType": 5126,
      "count": 15212,
      "max": [
        0.1316295564174652,
        0.12449117749929428,
        0.4037119746208191
      ],
      "min": [
        -0.13162952661514282,
        -0.11907078325748444,
        -1.2945383787155151e-06
      ],
      "type": "VEC3"
    },
    {
      "bufferView": 2,
      "byteOffset": 182544,
      "componentType": 5126,
      "count": 15212,
      "max": [
        0.999982476234436,
        0.9999942183494568,
        0.9997057318687439
      ],
      "min": [
        -0.999982476234436,
        -0.999994158744812,
        -0.9996797442436218
      ],
      "type": "VEC3"
    },
    {
      "bufferView": 1,
      "componentType": 5126,
      "count": 15212,
      "max": [
        0.9637144804000854,
        0.9883168935775757
      ],
      "min": [
        0.011022984981536865,
        0.0017445199191570282
      ],
      "type": "VEC2"
    },
    {
      "bufferView": 1,
      "byteOffset": 121696,
      "componentType": 5126,
      "count": 15212,
      "max": [
        0.9637144804000854,
        0.9883168935775757
      ],
      "min": [
        0.011022984981536865,
        0.0017445199191570282
      ],
      "type": "VEC2"
    },
    {
      "bufferView": 0,
      "componentType": 5125,
      "count": 50316,
      "type": "SCALAR"
    }
  ],
  "asset": {
    "extras": {
      "author": "Riejoncer (https://sketchfab.com/Riejoncer)",
      "license": "CC-BY-4.0 (http://creativecommons.org/licenses/by/4.0/)",
      "source": "https://sketchfab.com/3d-models/simple-modern-chair-free-model-308df07d6fdb428db5e1ae805099d2cf",
      "title": "Simple Modern Chair (Free model)"
    },
    "generator": "Sketchfab-12.67.0",
    "version": "2.0"
  },
  "bufferViews": [
    {
      "buffer": 0,
      "byteLength": 201264,
      "name": "floatBufferViews",
      "target": 34963
    },
    {
      "buffer": 0,
      "byteLength": 243392,
      "byteOffset": 201264,
      "byteStride": 8,
      "name": "floatBufferViews",
      "target": 34962
    },
    {
      "buffer": 0,
      "byteLength": 365088,
      "byteOffset": 444656,
      "byteStride": 12,
      "name": "floatBufferViews",
      "target": 34962
    }
  ],
  "buffers": [
    {
      "byteLength": 809744,
      "uri": "scene.bin"
    }
  ],
  "images": [
    {
      "uri": "textures/Chair_baseColor.png"
    },
    {
      "uri": "textures/Chair_metallicRoughness.png"
    }
  ],
  "materials": [
    {
      "doubleSided": true,
      "name": "Chair",
      "pbrMetallicRoughness": {
        "baseColorTexture": {
          "index": 0
        },
        "metallicRoughnessTexture": {
          "index": 1
        }
      }
    }
  ],
  "meshes": [
    {
      "name": "Chair_Chair_0",
      "primitives": [
        {
          "attributes": {
            "NORMAL": 1,
            "POSITION": 0,
            "TEXCOORD_0": 2,
            "TEXCOORD_1": 3
          },
          "indices": 4,
          "material": 0,
          "mode": 4
        }
      ]
    }
  ],
  "nodes": [
    {
      "children": [
        1
      ],
      "matrix": [
        0.3301331697940775,
        -1.0231419359738117e-17,
        0.04607821641598786,
        0.0,
        0.04607821641598786,
        7.330428925957421e-17,
        -0.3301331697940775,
        0.0,
        0.0,
        0.3333333432674408,
        7.401487051415874e-17,
        0.0,
        -0.0028920727781951427,
        -1.462932459616705e-07,
        -0.00020041680545546114,
        1.0
      ],
      "name": "Sketchfab_model"
    },
    {
      "children": [
        2
      ],
      "matrix": [
        0.009999999776482582,
        0.0,
        0.0,
        0.0,
        0.0,
        0.0,
        0.009999999776482582,
        0.0,
        0.0,
        -0.009999999776482582,
        0.0,
        0.0,
        0.0,
        0.0,
        0.0,
        1.0
      ],
      "name": "Chair.fbx"
    },
    {
      "children": [
        3
      ],
      "name": "RootNode"
    },
    {
      "children": [
        4
      ],
      "matrix": [
        772.0316162109375,
        0.0,
        0.0,
        0.0,
        0.0,
        -0.00012577991542505958,
        -772.0316162109273,
        0.0,
        0.0,
        772.0316162109273,
        -0.00012577991542505958,
        0.0,
        0.0,
        0.0,
        0.0,
        1.0
      ],
      "name": "Chair"
    },
    {
      "mesh": 0,
      "name": "Chair_Chair_0"
    }
  ],
  "samplers": [
    {
      "magFilter": 9729,
      "minFilter": 9987,
      "wrapS": 33071,
      "wrapT": 33071
    },
    {
      "magFilter": 9728,
      "minFilter": 9728,
      "wrapS": 33071,
      "wrapT": 33071
    }
  ],
  "scene": 0,
  "scenes": [
    {
      "name": "Sketchfab_Scene",
      "nodes": [
        0
      ]
    }
  ],
  "textures": [
    {
      "sampler": 0,
      "source": 0
    },
    {
      "sampler": 1,
      "source": 1
    }
  ]
}
