{
  "accessors": [
    {
      "bufferView": 2,
      "componentType": 5126,
      "count": 30,
      "max": [
        4.307161808013916,
        8.08433723449707,
        1.0953404439836617e-15
      ],
      "min": [
        -5.558788776397705,
        -7.0631866455078125,
        -0.04633166268467903
      ],
      "type": "VEC3"
    },
    {
      "bufferView": 2,
      "byteOffset": 360,
      "componentType": 5126,
      "count": 30,
      "max": [
        1.0,
        1.0,
        1.0
      ],
      "min": [
        -1.0,
        -1.0,
        -1.0
      ],
      "type": "VEC3"
    },
    {
      "bufferView": 1,
      "componentType": 5126,
      "count": 30,
      "max": [
        0.9657244682312012,
        0.9911895990371704
      ],
      "min": [
        0.1549789160490036,
        0.0017108321189880371
      ],
      "type": "VEC2"
    },
    {
      "bufferView": 0,
      "componentType": 5125,
      "count": 36,
      "type": "SCALAR"
    },
    {
      "bufferView": 2,
      "byteOffset": 720,
      "componentType": 5126,
      "count": 367,
      "max": [
        0.0,
        7.573760986328125,
        0.06430646777153015
      ],
      "min": [
        -6.830845832824707,
        -7.573760986328125,
        -0.04963052272796631
      ],
      "type": "VEC3"
    },
    {
      "bufferView": 2,
      "byteOffset": 5124,
      "componentType": 5126,
      "count": 367,
      "max": [
        0.9999999403953552,
        1.0,
        0.9999998807907104
      ],
      "min": [
        -1.0,
        -1.0,
        -1.0
      ],
      "type": "VEC3"
    },
    {
      "bufferView": 1,
      "byteOffset": 240,
      "componentType": 5126,
      "count": 367,
      "max": [
        0.977207601070404,
        0.9924994707107544
      ],
      "min": [
        0.0,
        0.0016654729843139648
      ],
      "type": "VEC2"
    },
    {
      "bufferView": 0,
      "byteOffset": 144,
      "componentType": 5125,
      "count": 384,
      "type": "SCALAR"
    },
    {
      "bufferView": 2,
      "byteOffset": 9528,
      "componentType": 5126,
      "count": 36,
      "max": [
        5.213735103607178,
        7.573761463165283,
        0.047725528478622437
      ],
      "min": [
        0.0,
        -7.5737624168396,
        -0.004641197621822357
      ],
      "type": "VEC3"
    },
    {
      "bufferView": 2,
      "byteOffset": 9960,
      "componentType": 5126,
      "count": 36,
      "max": [
        0.9999963045120239,
        1.0,
        0.9999997019767761
      ],
      "min": [
        -0.999967634677887,
        -1.0,
        -0.9999997019767761
      ],
      "type": "VEC3"
    },
    {
      "bufferView": 1,
      "byteOffset": 3176,
      "componentType": 5126,
      "count": 36,
      "max": [
        0.9802365303039551,
        0.9923577904701233
      ],
      "min": [
        0.15354645252227783,
        0.0017108917236328125
      ],
      "type": "VEC2"
    },
    {
      "bufferView": 0,
      "byteOffset": 1680,
      "componentType": 5125,
      "count": 36,
      "type": "SCALAR"
    },
    {
      "bufferView": 3,
      "componentType": 5126,
      "count": 507,
      "max": [
        25.0
      ],
      "min": [
        0.0
      ],
      "type": "SCALAR"
    },
    {
      "bufferView": 4,
      "componentType": 5126,
      "count": 507,
      "max": [
        -0.00020451549789868295,
        -0.12278782576322556,
        0.7071067094802856,
        0.696364164352417
      ],
      "min": [
        -0.6963642835617065,
        -0.7071067690849304,
        0.12278788536787033,
        0.0002045772416749969
      ],
      "type": "VEC4"
    },
    {
      "bufferView": 3,
      "byteOffset": 2028,
      "componentType": 5126,
      "count": 507,
      "max": [
        25.0
      ],
      "min": [
        0.0
      ],
      "type": "SCALAR"
    },
    {
      "bufferView": 4,
      "byteOffset": 8112,
      "componentType": 5126,
      "count": 507,
      "max": [
        -0.0002045772416749969,
        0.7071067690849304,
        -0.12278780341148376,
        0.6963642239570618
      ],
      "min": [
        -0.6963642835617065,
        0.12278785556554794,
        -0.7071067094802856,
        0.0002045154251391068
      ],
      "type": "VEC4"
    }
  ],
  "animations": [
    {
      "channels": [
        {
          "sampler": 0,
          "target": {
            "node": 14,
            "path": "rotation"
          }
        },
        {
          "sampler": 1,
          "target": {
            "node": 11,
            "path": "rotation"
          }
        }
      ],
      "name": "Animation",
      "samplers": [
        {
          "input": 12,
          "interpolation": "LINEAR",
          "output": 13
        },
        {
          "input": 14,
          "interpolation": "LINEAR",
          "output": 15
        }
      ]
    }
  ],
  "asset": {
    "extras": {
      "author": "Jayasurya Aasaithambi (https://sketchfab.com/jayasurya00098)",
      "license": "CC-BY-4.0 (http://creativecommons.org/licenses/by/4.0/)",
      "source": "https://sketchfab.com/3d-models/happy-birthday-greeting-card-0a0e6664e27642cfa632766f8f98b0ca",
      "title": "Happy Birthday Greeting Card"
    },
    "generator": "Sketchfab-12.68.0",
    "version": "2.0"
  },
  "bufferViews": [
    {
      "buffer": 0,
      "byteLength": 1824,
      "name": "floatBufferViews",
      "target": 34963
    },
    {
      "buffer": 0,
      "byteLength": 3464,
      "byteOffset": 1824,
      "byteStride": 8,
      "name": "floatBufferViews",
      "target": 34962
    },
    {
      "buffer": 0,
      "byteLength": 10392,
      "byteOffset": 5288,
      "byteStride": 12,
      "name": "floatBufferViews",
      "target": 34962
    },
    {
      "buffer": 0,
      "byteLength": 4056,
      "byteOffset": 15680,
      "name": "floatBufferViews"
    },
    {
      "buffer": 0,
      "byteLength": 16224,
      "byteOffset": 19736,
      "byteStride": 16,
      "name": "floatBufferViews"
    }
  ],
  "buffers": [
    {
      "byteLength": 35960,
      "uri": "scene.bin"
    }
  ],
  "images": [
    {
      "uri": "textures/lambert2_baseColor.jpeg"
    }
  ],
  "materials": [
    {
      "doubleSided": true,
      "name": "lambert2",
      "pbrMetallicRoughness": {
        "baseColorTexture": {
          "index": 0
        },
        "metallicFactor": 0.0,
        "roughnessFactor": 0.552786
      }
    }
  ],
  "meshes": [
    {
      "name": "Object_0",
      "primitives": [
        {
          "attributes": {
            "NORMAL": 1,
            "POSITION": 0,
            "TEXCOORD_0": 2
          },
          "indices": 3,
          "material": 0,
          "mode": 4
        }
      ]
    },
    {
      "name": "Object_1",
      "primitives": [
        {
          "attributes": {
            "NORMAL": 5,
            "POSITION": 4,
            "TEXCOORD_0": 6
          },
          "indices": 7,
          "material": 0,
          "mode": 4
        }
      ]
    },
    {
      "name": "Object_2",
      "primitives": [
        {
          "attributes": {
            "NORMAL": 9,
            "POSITION": 8,
            "TEXCOORD_0": 10
          },
          "indices": 11,
          "material": 0,
          "mode": 4
        }
      ]
    }
  ],
  "nodes": [
    {
      "children": [
        1
      ],
      "matrix": [
        1.0,
        0.0,
        0.0,
        0.0,
        0.0,
        2.220446049250313e-16,
        -1.0,
        0.0,
        0.0,
        1.0,
        2.220446049250313e-16,
        0.0,
        0.0,
        0.0,
        0.0,
        1.0
      ],
      "name": "Sketchfab_model"
    },
    {
      "children": [
        2
      ],
      "name": "root"
    },
    {
      "children": [
        3
      ],
      "matrix": [
        1.0,
        0.0,
        0.0,
        0.0,
        0.0,
        2.220446049250313e-16,
        1.0,
        0.0,
        0.0,
        -1.0,
        2.220446049250313e-16,
        0.0,
        0.0,
        0.0,
        0.0,
        1.0
      ],
      "name": "GLTF_SceneRootNode"
    },
    {
      "children": [
        4
      ],
      "matrix": [
        0.22126071155071259,
        0.0,
        -0.0,
        0.0,
        -0.0,
        0.0,
        -0.22126071155071259,
        0.0,
        0.0,
        0.22126071155071259,
        0.0,
        0.0,
        0.0,
        0.0,
        0.0,
        1.0
      ],
      "name": "Birthday Card_10"
    },
    {
      "children": [
        5
      ],
      "name": "root_9"
    },
    {
      "children": [
        6,
        11,
        14
      ],
      "matrix": [
        1.0,
        0.0,
        0.0,
        0.0,
        0.0,
        0.0,
        1.0,
        0.0,
        0.0,
        -1.0,
        0.0,
        0.0,
        0.0,
        0.0,
        0.0,
        1.0
      ],
      "name": "Card_8"
    },
    {
      "children": [
        7
      ],
      "matrix": [
        -0.9999999999999982,
        4.371139121043356e-08,
        4.371139121043356e-08,
        0.0,
        -4.371139121043356e-08,
        8.881784197001252e-16,
        -0.9999999999999991,
        0.0,
        -4.371139121043356e-08,
        -0.9999999999999991,
        8.881784197001252e-16,
        0.0,
        0.0,
        0.0,
        0.0,
        1.0
      ],
      "name": "Card.001_3"
    },
    {
      "children": [
        8
      ],
      "name": "Card.001_3_2"
    },
    {
      "children": [
        9
      ],
      "name": "Base_2_1"
    },
    {
      "children": [
        10
      ],
      "name": "Object_10_0"
    },
    {
      "mesh": 0,
      "name": "Object_10"
    },
    {
      "children": [
        12
      ],
      "name": "Card_Left_1_5",
      "rotation": [
        -0.00020457727077882737,
        0.7071068286895752,
        -0.7071067690849304,
        0.00020451545424293727
      ],
      "translation": [
        -4.306787967681885,
        0.11190754920244217,
        -0.5105748772621155
      ]
    },
    {
      "children": [
        13
      ],
      "name": "Object_6_4"
    },
    {
      "mesh": 1,
      "name": "Object_13"
    },
    {
      "children": [
        15
      ],
      "name": "Right_Card_0_7",
      "rotation": [
        0.00020451549789868295,
        0.7071068286895752,
        -0.7071067690849304,
        -0.00020457727077882737
      ],
      "translation": [
        5.559264183044434,
        0.09651444107294083,
        -0.5105761289596558
      ]
    },
    {
      "children": [
        16
      ],
      "name": "Object_4_6"
    },
    {
      "mesh": 2,
      "name": "Object_16"
    }
  ],
  "samplers": [
    {
      "magFilter": 9729,
      "minFilter": 9987,
      "wrapS": 10497,
      "wrapT": 10497
    }
  ],
  "scene": 0,
  "scenes": [
    {
      "name": "Sketchfab_Scene",
      "nodes": [
        0
      ]
    }
  ],
  "textures": [
    {
      "sampler": 0,
      "source": 0
    }
  ]
}
