{
  "accessors": [
    {
      "bufferView": 2,
      "componentType": 5126,
      "count": 16701,
      "max": [
        0.014498556964099407,
        2.967312812805176,
        1.7070413827896118
      ],
      "min": [
        0.0020995968952775,
        -2.798863649368286,
        0.05570167303085327
      ],
      "type": "VEC3"
    },
    {
      "bufferView": 2,
      "byteOffset": 200412,
      "componentType": 5126,
      "count": 16701,
      "max": [
        1.0,
        0.6072653532028198,
        0.9999989867210388
      ],
      "min": [
        -1.0,
        -0.6066478490829468,
        -0.9999989867210388
      ],
      "type": "VEC3"
    },
    {
      "bufferView": 3,
      "componentType": 5126,
      "count": 16701,
      "max": [
        0.07762056589126587,
        0.9871917963027954,
        0.7878645658493042,
        1.0
      ],
      "min": [
        -0.07462570816278458,
        -0.9999979734420776,
        -0.7900621891021729,
        -1.0
      ],
      "type": "VEC4"
    },
    {
      "bufferView": 1,
      "componentType": 5126,
      "count": 16701,
      "max": [
        0.9996762871742249,
        0.9979766607284546
      ],
      "min": [
        0.0017371465219184756,
        0.02988654375076294
      ],
      "type": "VEC2"
    },
    {
      "bufferView": 0,
      "componentType": 5125,
      "count": 18060,
      "type": "SCALAR"
    }
  ],
  "asset": {
    "extras": {
      "author": "Duznot (https://sketchfab.com/duz_vr)",
      "license": "CC-BY-4.0 (http://creativecommons.org/licenses/by/4.0/)",
      "source": "https://sketchfab.com/3d-models/happy-birthday-sign-7cac3f605db640cd9f490a053240ead4",
      "title": "Happy Birthday Sign"
    },
    "generator": "Sketchfab-12.78.0",
    "version": "2.0"
  },
  "bufferViews": [
    {
      "buffer": 0,
      "byteLength": 72240,
      "name": "floatBufferViews",
      "target": 34963
    },
    {
      "buffer": 0,
      "byteLength": 133608,
      "byteOffset": 72240,
      "byteStride": 8,
      "name": "floatBufferViews",
      "target": 34962
    },
    {
      "buffer": 0,
      "byteLength": 400824,
      "byteOffset": 205848,
      "byteStride": 12,
      "name": "floatBufferViews",
      "target": 34962
    },
    {
      "buffer": 0,
      "byteLength": 267216,
      "byteOffset": 606672,
      "byteStride": 16,
      "name": "floatBufferViews",
      "target": 34962
    }
  ],
  "buffers": [
    {
      "byteLength": 873888,
      "uri": "scene.bin"
    }
  ],
  "images": [
    {
      "uri": "textures/Happy_Birthday_baseColor.jpeg"
    },
    {
      "uri": "textures/Happy_Birthday_metallicRoughness.png"
    },
    {
      "uri": "textures/Happy_Birthday_normal.png"
    }
  ],
  "materials": [
    {
      "doubleSided": true,
      "name": "Happy_Birthday",
      "normalTexture": {
        "index": 2
      },
      "occlusionTexture": {
        "index": 1
      },
      "pbrMetallicRoughness": {
        "baseColorTexture": {
          "index": 0
        },
        "metallicRoughnessTexture": {
          "index": 1
        }
      }
    }
  ],
  "meshes": [
    {
      "name": "Birthday_Happy Birthday_0",
      "primitives": [
        {
          "attributes": {
            "NORMAL": 1,
            "POSITION": 0,
            "TANGENT": 2,
            "TEXCOORD_0": 3
          },
          "indices": 4,
          "material": 0,
          "mode": 4
        }
      ]
    }
  ],
  "nodes": [
    {
      "children": [
        1
      ],
      "matrix": [
        0.974513053894043,
        0.20994804799556735,
        -0.0790324285626411,
        0.0,
        -0.07758711278438568,
        -0.015125004574656264,
        -0.9968708157539368,
        0.0,
        -0.21048645675182343,
        0.9775955677032471,
        0.0015497488202529336,
        0.0,
        0.1922629028558731,
        0.019278354942798615,
        -0.0009736763313412624,
        1.0
      ],
      "name": "Sketchfab_model"
    },
    {
      "children": [
        2
      ],
      "matrix": [
        0.009999999776482582,
        0.0,
        0.0,
        0.0,
        0.0,
        0.0,
        0.009999999776482582,
        0.0,
        0.0,
        -0.009999999776482582,
        0.0,
        0.0,
        0.0,
        0.0,
        0.0,
        1.0
      ],
      "name": "birthday sign.fbx"
    },
    {
      "children": [
        3
      ],
      "name": "RootNode"
    },
    {
      "children": [
        4
      ],
      "matrix": [
        100.0,
        0.0,
        0.0,
        0.0,
        0.0,
        -1.629206793918314e-05,
        -99.99999999999868,
        0.0,
        0.0,
        99.99999999999868,
        -1.629206793918314e-05,
        0.0,
        0.0,
        0.0,
        0.0,
        1.0
      ],
      "name": "Birthday"
    },
    {
      "mesh": 0,
      "name": "Birthday_Happy Birthday_0"
    }
  ],
  "samplers": [
    {
      "magFilter": 9729,
      "minFilter": 9987,
      "wrapS": 10497,
      "wrapT": 10497
    }
  ],
  "scene": 0,
  "scenes": [
    {
      "name": "Sketchfab_Scene",
      "nodes": [
        0
      ]
    }
  ],
  "textures": [
    {
      "sampler": 0,
      "source": 0
    },
    {
      "sampler": 0,
      "source": 1
    },
    {
      "sampler": 0,
      "source": 2
    }
  ]
}
